<svg xmlns="http://www.w3.org/2000/svg" xmlns:xlink="http://www.w3.org/1999/xlink" xmlns:inkscape="http://www.inkscape.org/namespaces/inkscape" version="1.1" width="270" height="106" viewBox="13.5 32.4 13.5 5.3">
<defs>
<clipPath id="clip_1">
<path transform="matrix(1,0,0,-1,0,72.5669)" d="M0 72.567H55.559V0H0Z"/>
</clipPath>
</defs>
<g inkscape:groupmode="layer" inkscape:label="&#xB514;&#xC790;&#xC778;">
<g clip-path="url(#clip_1)">
<path transform="matrix(1,0,0,-1,4.2537,3.939499)" d="M0 0C-.062 .045-.136 .06-.188 .06-.268 .06-.317 .017-.317-.046-.317-.114-.246-.167-.121-.259 .007-.354 .077-.423 .077-.542 .077-.672-.031-.8-.231-.8-.314-.8-.422-.782-.503-.734L-.467-.614C-.401-.656-.316-.687-.237-.687-.157-.687-.087-.639-.087-.548-.087-.455-.172-.396-.254-.339-.377-.252-.481-.178-.481-.047-.481 .087-.373 .174-.201 .174-.118 .174-.022 .15 .04 .112Z" fill="#1b1815"/>
<path transform="matrix(1,0,0,-1,0,72.5669)" d="M4.508 68.561H4.664V67.84H4.508ZM4.494 68.746C4.494 68.8 4.535 68.843 4.585 68.843 4.636 68.843 4.678 68.8 4.678 68.746 4.678 68.691 4.636 68.649 4.585 68.649 4.535 68.649 4.494 68.691 4.494 68.746" fill="#1b1815"/>
<path transform="matrix(1,0,0,-1,5.3626,4.360405)" d="M0 0C0 .163-.083 .266-.181 .266-.286 .266-.364 .158-.364 0-.364-.159-.286-.27-.181-.27-.078-.27 0-.159 0 0M.156 .355V-.273C.156-.528-.03-.641-.228-.641-.332-.641-.404-.628-.493-.588L-.473-.465C-.383-.518-.311-.534-.227-.534-.111-.534-.01-.429 0-.276-.047-.337-.111-.366-.196-.366-.396-.366-.524-.227-.524 .002-.524 .222-.388 .368-.196 .368-.117 .368-.047 .339 0 .291V.355Z" fill="#1b1815"/>
<path transform="matrix(1,0,0,-1,5.8455,4.005905)" d="M0 0V-.07C.063-.006 .134 .013 .203 .013 .372 .013 .475-.093 .475-.266V-.721H.319V-.293C.319-.175 .263-.096 .163-.096 .072-.096 .001-.172 .001-.297V-.721H-.153V0Z" fill="#1b1815"/>
<path transform="matrix(1,0,0,-1,6.886,4.3647997)" d="M0 0-.106-.015C-.197-.027-.261-.079-.261-.154-.261-.223-.212-.268-.158-.268-.073-.268 0-.227 0-.069ZM.036-.362C.027-.352 .013-.32 .011-.282-.058-.354-.139-.377-.207-.377-.328-.377-.421-.293-.421-.162-.421-.038-.328 .063-.167 .082L-.002 .1C-.002 .228-.07 .266-.143 .266-.217 .266-.291 .23-.349 .183L-.375 .3C-.304 .348-.228 .372-.13 .372-.002 .372 .154 .309 .154 .111V-.189C.154-.24 .161-.306 .184-.362Z" fill="#1b1815"/>
<path transform="matrix(1,0,0,-1,7.429,3.8106003)" d="M0 0V-.195H.185V-.292H0V-.677C0-.788 .047-.82 .107-.82 .14-.82 .176-.808 .2-.793L.216-.896C.163-.918 .112-.929 .049-.929-.074-.929-.157-.847-.157-.704V-.292H-.255V-.195H-.157V-.078Z" fill="#1b1815"/>
<path transform="matrix(1,0,0,-1,8.2327,4.7266008)" d="M0 0V.069C-.062 .006-.135-.013-.202-.013-.371-.013-.475 .093-.475 .267V.721H-.319V.293C-.319 .175-.263 .096-.163 .096-.072 .096-.001 .172-.001 .298V.721H.153V0Z" fill="#1b1815"/>
<path transform="matrix(1,0,0,-1,8.7151,4.005905)" d="M0 0V-.083C.052-.03 .116 .013 .182 .013 .217 .013 .255 .012 .3-.012L.271-.122C.231-.101 .188-.098 .158-.1 .098-.105 .001-.159 .001-.3V-.721H-.154V0Z" fill="#1b1815"/>
<path transform="matrix(1,0,0,-1,9.5994,4.2925035)" d="M0 0C0 .117-.074 .204-.17 .204-.265 .204-.336 .116-.339 0ZM-.344-.093C-.34-.246-.252-.341-.13-.341-.049-.341 .017-.323 .084-.27L.107-.377C.029-.431-.059-.447-.147-.447-.358-.447-.493-.295-.493-.066-.493 .169-.35 .3-.169 .3 .03 .3 .148 .157 .148-.04 .148-.056 .148-.076 .147-.093Z" fill="#1b1815"/>
<path transform="matrix(1,0,0,-1,0,72.5669)" d="M4.613 66.321H4.45V67.412H4.613ZM4.113 67.352V67.132C4.112 66.937 4.189 66.783 4.324 66.732V66.617C4.169 66.638 4.046 66.762 4.023 66.831 4.003 66.763 3.87 66.637 3.733 66.617V66.732C3.863 66.783 3.943 66.935 3.944 67.134V67.352Z" fill="#1b1815"/>
<path transform="matrix(1,0,0,-1,5.471,5.981003)" d="M0 0C.04 .089 .048 .199 .048 .316V.657H-.524V.766H.211V.317C.211 .186 .193 .079 .157 0H.331V-.108H-.646V0Z" fill="#1b1815"/>
<path transform="matrix(1,0,0,-1,6.1268,5.8242037)" d="M0 0H.274C.351 0 .409-.005 .483 .038V.669H.646V-.422H.483V-.07C.426-.1 .344-.108 .27-.108H-.09C-.161-.108-.216-.04-.216 .041V.621H-.053V.044C-.053 .017-.035 0 0 0" fill="#1b1815"/>
<path transform="matrix(1,0,0,-1,7.8646,5.155304)" d="M0 0V-1.091H-.163V-.452H-.374V-.343H-.163V0ZM-.325-.229H-.512V-.304C-.513-.499-.434-.654-.301-.704V-.818C-.44-.804-.574-.685-.602-.605-.626-.684-.758-.801-.892-.818V-.704C-.757-.649-.682-.501-.681-.301V-.229H-.874V-.121H-.681V0H-.512V-.121H-.325Z" fill="#1b1815"/>
<path transform="matrix(1,0,0,-1,4.5648,7.0230028)" d="M0 0V-.657H-.09V.428H0V.085H.187V0ZM-.539 .214C-.634 .214-.711 .113-.711-.054-.711-.215-.635-.313-.54-.313-.444-.313-.369-.215-.368-.054-.369 .116-.441 .214-.539 .214M-.587 .301V.422H-.491V.301H-.235V.217H-.378C-.319 .158-.277 .065-.277-.054-.277-.268-.401-.398-.539-.398-.679-.398-.803-.268-.802-.054-.803 .065-.759 .158-.699 .217H-.838V.301Z" fill="#1b1815"/>
<path transform="matrix(1,0,0,-1,4.9988,7.2764055)" d="M0 0H.354C.427 0 .506 .014 .556 .036V.681H.646V.338H.833V.253H.646V-.404H.556V-.042C.502-.067 .416-.084 .351-.084H-.042C-.11-.084-.156-.025-.156 .053V.627H-.065V.054C-.065 .027-.053 0 0 0" fill="#1b1815"/>
<path transform="matrix(1,0,0,-1,6.3934,7.205101)" d="M0 0C-.092 0-.178-.088-.178-.212-.18-.337-.097-.422-.001-.422 .092-.422 .177-.337 .177-.212 .177-.085 .094 0 0 0M.357 .507H.051C.072 .374 .214 .29 .355 .285V.194C.234 .194 .034 .285-.001 .389-.041 .285-.229 .195-.355 .194V.285C-.221 .292-.074 .371-.052 .507H-.354V.592H.357ZM-.482 .098H.482V.013H.171C.228-.04 .268-.118 .268-.212 .267-.393 .137-.506 0-.506-.142-.506-.269-.388-.269-.212-.269-.119-.229-.04-.172 .013H-.482Z" fill="#1b1815"/>
<path transform="matrix(1,0,0,-1,7.8406,6.5951998)" d="M0 0V-.795H-.09V-.661H-.355V-.576H-.09V0ZM-.521-1.006H.012V-1.091H-.568C-.627-1.091-.669-1.033-.669-.96V-.753H-.579V-.949C-.579-.978-.57-1.006-.521-1.006M-.432-.42C-.414-.376-.404-.34-.404-.241V-.114H-.826V-.03H-.313V-.246C-.313-.347-.326-.382-.34-.42H-.175V-.505H-.515V-.699H-.606V-.505H-.886V-.42Z" fill="#1b1815"/>
<path transform="matrix(1,0,0,-1,4.2357,12.896503)" d="M0 0V-.239H.118V-.325H0V-.663H-.107V0ZM-.182-.046C-.184-.317-.302-.445-.476-.54L-.545-.467C-.375-.374-.3-.28-.294-.129H-.513V-.046Z" fill="#1b1815"/>
<path transform="matrix(1,0,0,-1,4.4598,13.286602)" d="M0 0V.225H.367V.289H-.001V.369H.475V.146H.108V.08H.494V0ZM.292-.026V-.103H.557V-.187H-.081V-.103H.183V-.026Z" fill="#1b1815"/>
<path transform="matrix(1,0,0,-1,5.6102,13.297901)" d="M0 0C-.084 .027-.182 .085-.233 .15-.281 .088-.377 .031-.467-.001L-.525 .077C-.426 .108-.29 .184-.29 .262V.284H-.474V.366H.008V.284H-.178V.262C-.178 .184-.046 .111 .057 .077ZM.085-.165H-.552V-.081H-.289V.034H-.18V-.081H.085Z" fill="#1b1815"/>
<path transform="matrix(1,0,0,-1,6.3968,13.149902)" d="M0 0H-.106V-.119H-.212V.253H-.106V.084H0ZM-.212-.285H-.454V-.325H-.212ZM-.374-.007C-.374 .018-.406 .035-.449 .035-.49 .035-.522 .018-.522-.007-.522-.034-.49-.05-.449-.05-.406-.05-.374-.034-.374-.007M-.108-.405H-.557V-.151H-.454V-.206H-.212V-.151H-.108ZM-.448-.12C-.556-.12-.625-.076-.625-.006-.625 .064-.556 .105-.449 .105-.341 .105-.27 .064-.27-.006-.27-.081-.341-.12-.448-.12M-.252 .122H-.658V.199H-.504V.271H-.398V.199H-.252Z" fill="#1b1815"/>
<path transform="matrix(1,0,0,-1,6.6575,13.436001)" d="M0 0C0-.037 .063-.056 .126-.056 .191-.056 .258-.038 .258 0 .258 .037 .189 .055 .126 .055 .064 .055 0 .038 0 0M.059 .264C.059 .292 .035 .311-.017 .311-.067 .311-.091 .292-.091 .264-.091 .235-.067 .217-.017 .217 .035 .217 .059 .236 .059 .264M-.106 0C-.106 .083-.018 .131 .126 .131 .274 .131 .363 .085 .363 0 .363-.086 .276-.133 .126-.133-.022-.133-.106-.085-.106 0M-.016 .146C-.127 .146-.194 .196-.194 .264-.194 .331-.129 .382-.017 .382 .095 .382 .162 .331 .162 .264 .162 .193 .094 .146-.016 .146M.177 .412H.25V.539H.356V.142H.25V.192H.17V.273H.25V.33H.17V.401H-.222V.48H-.068V.557H.037V.48H.177Z" fill="#1b1815"/>
<path transform="matrix(1,0,0,-1,4.0789,25.458504)" d="M0 0H.101V.076H.173V-.305H.101V-.205H0V-.146H.101V-.058H0ZM.104-.458C.104-.406 .047-.378-.046-.378-.14-.378-.196-.407-.196-.458-.196-.505-.14-.537-.046-.537 .047-.537 .104-.506 .104-.458M.179-.457C.179-.538 .109-.593-.047-.593-.201-.593-.271-.537-.271-.457-.271-.38-.201-.322-.047-.322 .109-.322 .179-.376 .179-.457M-.085-.101C-.085-.046-.123 .003-.191 .003-.263 .003-.296-.046-.296-.101-.296-.153-.265-.205-.191-.205-.121-.205-.085-.155-.085-.101M-.191 .061C-.081 .061-.012-.015-.012-.101-.012-.186-.076-.262-.191-.262-.302-.262-.37-.186-.37-.101-.37-.015-.3 .061-.191 .061" fill="#1b1815"/>
<path transform="matrix(1,0,0,-1,0,72.5669)" d="M4.809 47.106H4.501V46.987H4.809ZM4.88 46.929H4.431V47.165H4.88ZM4.908 46.538H4.428V46.746H4.5V46.597H4.908ZM4.967 46.801H4.704V46.669H4.631V46.801H4.344V46.859H4.967Z" fill="#1b1815"/>
<path transform="matrix(1,0,0,-1,4.3157,34.053205)" d="M0 0H-.274V-.102H-.083V-.351H-.156V-.159H-.547V-.102H-.35V0H-.623V.059H-.181C-.175 .102-.164 .186-.162 .231H-.539V.29H-.084C-.086 .229-.098 .116-.107 .059H0Z" fill="#1b1815"/>
<path transform="matrix(1,0,0,-1,0,72.5669)" d="M4.809 38.745H4.501V38.626H4.809ZM4.88 38.567H4.431V38.803H4.88ZM4.908 38.177H4.428V38.385H4.5V38.235H4.908ZM4.967 38.44H4.704V38.308H4.631V38.44H4.344V38.498H4.967Z" fill="#1b1815"/>
<path transform="matrix(1,0,0,-1,5.2982,33.7232)" d="M0 0-.235-.674H-.305L-.071 0Z" fill="#1b1815"/>
<path transform="matrix(1,0,0,-1,5.7108,33.8198)" d="M0 0H.101V.076H.173V-.305H.101V-.205H0V-.146H.101V-.058H0ZM.104-.458C.104-.406 .047-.378-.046-.378-.14-.378-.196-.407-.196-.458-.196-.505-.14-.537-.046-.537 .047-.537 .104-.506 .104-.458M.179-.457C.179-.538 .109-.593-.047-.593-.201-.593-.271-.537-.271-.457-.271-.38-.201-.322-.047-.322 .109-.322 .179-.376 .179-.457M-.085-.101C-.085-.046-.123 .003-.191 .003-.263 .003-.296-.046-.296-.101-.296-.153-.265-.205-.191-.205-.121-.205-.085-.155-.085-.101M-.191 .061C-.081 .061-.012-.015-.012-.101-.012-.187-.076-.262-.191-.262-.302-.262-.37-.187-.37-.101-.37-.015-.3 .061-.191 .061" fill="#1b1815"/>
<path transform="matrix(1,0,0,-1,0,72.5669)" d="M6.441 38.745H6.133V38.626H6.441ZM6.512 38.567H6.063V38.803H6.512ZM6.539 38.177H6.059V38.385H6.132V38.235H6.539ZM6.598 38.44H6.336V38.308H6.263V38.44H5.976V38.498H6.598Z" fill="#1b1815"/>
<path transform="matrix(1,0,0,-1,4.0047,42.5698)" d="M0 0C-.1 0-.159-.03-.159-.074-.159-.119-.1-.149 0-.149 .1-.149 .159-.119 .159-.074 .159-.029 .1 0 0 0M.231 .216C.126 .237 .042 .278 0 .328-.037 .277-.124 .239-.229 .217L-.265 .268C-.158 .29-.062 .33-.042 .39H-.228V.447H.228V.39H.041C.055 .325 .164 .289 .266 .268ZM.237-.074C.237-.149 .16-.205 0-.205-.158-.205-.236-.149-.236-.074-.236-.007-.17 .044-.039 .053V.119H-.312V.178H.311V.119H.037V.053C.171 .045 .237-.007 .237-.074" fill="#1b1815"/>
<path transform="matrix(1,0,0,-1,0,72.5669)" d="M4.809 30.383H4.501V30.264H4.809ZM4.88 30.205H4.431V30.441H4.88ZM4.908 29.815H4.428V30.023H4.5V29.873H4.908ZM4.967 30.077H4.704V29.945H4.631V30.077H4.344V30.136H4.967Z" fill="#1b1815"/>
<path transform="matrix(1,0,0,-1,4.3157,17.331501)" d="M0 0H-.274V-.102H-.083V-.351H-.156V-.159H-.547V-.102H-.35V0H-.623V.059H-.181C-.175 .102-.164 .186-.162 .231H-.539V.29H-.084C-.086 .229-.098 .116-.107 .059H0Z" fill="#1b1815"/>
<path transform="matrix(1,0,0,-1,0,72.5669)" d="M4.809 55.467H4.501V55.348H4.809ZM4.88 55.289H4.431V55.525H4.88ZM4.908 54.898H4.428V55.106H4.5V54.957H4.908ZM4.967 55.161H4.704V55.029H4.631V55.161H4.344V55.22H4.967Z" fill="#1b1815"/>
<path transform="matrix(1,0,0,-1,17.8687,34.9793)" d="M0 0V-.658H-.09V-.333H-.406V-.658H-.497V0H-.406V-.263H-.09V0Z" fill="#009578"/>
<path transform="matrix(1,0,0,-1,18.1395,35.3819)" d="M0 0C-.078-.01-.12-.051-.12-.113-.12-.16-.085-.197-.043-.197 .059-.197 .097-.091 .086 .011ZM.09-.185C.052-.237 .004-.266-.07-.266-.139-.266-.209-.209-.209-.118-.209-.026-.147 .049-.039 .062L.087 .077C.084 .153 .036 .188-.023 .188-.079 .188-.124 .162-.161 .133L-.175 .203C-.129 .236-.079 .255-.013 .255 .073 .255 .172 .21 .172 .074V-.138C.172-.174 .179-.221 .193-.256H.109C.097-.24 .09-.218 .09-.185" fill="#009578"/>
<path transform="matrix(1,0,0,-1,18.4795,35.1355)" d="M0 0V-.064C.036-.02 .086 .01 .154 .01 .267 .01 .335-.063 .335-.185V-.501H.249V-.202C.249-.118 .205-.059 .127-.059 .056-.059 .001-.115 .001-.206V-.501H-.085V0Z" fill="#009578"/>
<path transform="matrix(1,0,0,-1,19.0802,35.3819)" d="M0 0C-.078-.01-.12-.051-.12-.113-.12-.16-.085-.197-.043-.197 .059-.197 .097-.091 .086 .011ZM.09-.185C.052-.237 .004-.266-.07-.266-.139-.266-.209-.209-.209-.118-.209-.026-.147 .049-.039 .062L.087 .077C.084 .153 .036 .188-.023 .188-.079 .188-.124 .162-.161 .133L-.176 .203C-.129 .236-.079 .255-.012 .255 .073 .255 .172 .21 .172 .074V-.138C.172-.174 .179-.221 .193-.256H.109C.097-.24 .09-.218 .09-.185" fill="#009578"/>
<path transform="matrix(1,0,0,-1,19.7736,35.0745)" d="M0 0C-.033 .02-.084 .034-.123 .034-.188 .034-.226-.003-.226-.049-.226-.094-.165-.135-.088-.195-.004-.26 .051-.312 .051-.395 .051-.485-.023-.572-.156-.572-.208-.572-.284-.564-.33-.533L-.308-.455C-.271-.48-.218-.5-.159-.5-.095-.5-.039-.464-.039-.398-.039-.333-.109-.29-.21-.215-.262-.175-.317-.13-.317-.049-.317 .037-.241 .106-.132 .106-.076 .106-.013 .092 .023 .07Z" fill="#009578"/>
<path transform="matrix(1,0,0,-1,20.2155,35.339303)" d="M0 0C-.002 .083-.057 .153-.126 .153-.196 .153-.249 .083-.252 0ZM-.256-.058C-.254-.165-.189-.241-.099-.241-.042-.241 .008-.227 .053-.195L.065-.265C.008-.298-.047-.309-.11-.309-.255-.309-.341-.202-.341-.043-.341 .118-.252 .213-.125 .213 .033 .213 .095 .095 .084-.058Z" fill="#009578"/>
<path transform="matrix(1,0,0,-1,20.7312,35.6141)" d="M0 0C-.04-.025-.094-.034-.13-.034-.311-.034-.378 .117-.378 .225-.378 .356-.29 .488-.124 .488-.087 .488-.044 .48-.01 .461L-.024 .396C-.052 .411-.086 .418-.12 .418-.202 .418-.289 .353-.289 .229-.289 .127-.225 .036-.12 .036-.084 .036-.045 .044-.011 .065Z" fill="#009578"/>
<path transform="matrix(1,0,0,-1,21.1189,35.636705)" d="M0 0V.066C-.037 .011-.101-.011-.156-.011-.269-.011-.335 .064-.335 .185V.501H-.248V.202C-.248 .118-.207 .059-.13 .059-.059 .059-.001 .115-.001 .207V.501H.086V0Z" fill="#009578"/>
<path transform="matrix(1,0,0,-1,21.3662,35.136304)" d="M0 0V-.069C.032-.021 .09 .01 .141 .01 .163 .01 .188 .007 .211-.003L.195-.071C.179-.064 .159-.06 .14-.06 .081-.06 .001-.104 .001-.208V-.501H-.085V0Z" fill="#009578"/>
<path transform="matrix(1,0,0,-1,0,72.5669)" d="M21.629 37.431H21.713999V36.93H21.629ZM21.616 37.557C21.616 37.589 21.641 37.616 21.673 37.616 21.705 37.616 21.73 37.589 21.73 37.557 21.73 37.524 21.705 37.498 21.673 37.498 21.641 37.498 21.616 37.524 21.616 37.557" fill="#009578"/>
<path transform="matrix(1,0,0,-1,21.9355,35.0077)" d="M0 0V-.129H.131V-.19H0V-.459C0-.535 .021-.572 .08-.572 .104-.572 .124-.567 .143-.56L.153-.623C.12-.637 .084-.642 .047-.642-.033-.642-.087-.586-.087-.486V-.19H-.157V-.129H-.087V-.043Z" fill="#009578"/>
<path transform="matrix(1,0,0,-1,0,72.5669)" d="M22.137 37.431H22.221999V36.93H22.137ZM22.124 37.557C22.124 37.589 22.149 37.616 22.181 37.616 22.212 37.616 22.238 37.589 22.238 37.557 22.238 37.524 22.212 37.498 22.181 37.498 22.149 37.498 22.124 37.524 22.124 37.557" fill="#009578"/>
<path transform="matrix(1,0,0,-1,22.6164,35.339303)" d="M0 0C-.002 .083-.057 .153-.126 .153-.196 .153-.249 .083-.252 0ZM-.256-.058C-.254-.165-.189-.241-.099-.241-.042-.241 .008-.227 .054-.195L.065-.265C.008-.298-.047-.309-.11-.309-.255-.309-.341-.202-.341-.043-.341 .118-.252 .213-.125 .213 .033 .213 .095 .095 .084-.058Z" fill="#009578"/>
<path transform="matrix(1,0,0,-1,23.0109,35.216505)" d="M0 0C-.028 .017-.063 .027-.094 .027-.145 .027-.177 .004-.177-.033-.177-.069-.134-.094-.062-.144 .004-.189 .03-.232 .03-.292 .03-.373-.037-.432-.14-.432-.19-.432-.246-.421-.283-.394L-.264-.327C-.232-.351-.186-.366-.149-.366-.097-.366-.053-.342-.053-.298-.053-.25-.093-.224-.149-.187-.204-.15-.261-.113-.261-.044-.261 .041-.198 .09-.101 .09-.058 .09-.014 .08 .014 .063Z" fill="#009578"/>
<path transform="matrix(1,0,0,-1,18.1646,34.035604)" d="M0 0V-.629H-.157V.425H0V.105H.152V0ZM-.562 .207C-.626 .207-.677 .109-.676-.041-.677-.184-.627-.28-.563-.28-.498-.28-.449-.186-.449-.041-.449 .117-.495 .207-.562 .207M-.643 .315V.425H-.48V.315H-.262V.21H-.376C-.325 .148-.292 .061-.291-.041-.292-.238-.403-.385-.562-.385-.725-.386-.833-.238-.833-.041-.833 .061-.801 .148-.749 .21H-.857V.315Z" fill="#009578"/>
<path transform="matrix(1,0,0,-1,18.6177,34.257005)" d="M0 0H.265C.336 0 .389-.004 .456 .031V.647H.613V.326H.765V.221H.613V-.408H.456V-.074C.401-.098 .327-.105 .261-.105H-.087C-.156-.105-.209-.039-.209 .04V.6H-.051V.043C-.051 .016-.034 0 0 0" fill="#009578"/>
<path transform="matrix(1,0,0,-1,19.8994,34.2256)" d="M0 0C-.063 0-.132-.069-.132-.186-.133-.305-.068-.371-.001-.371 .063-.371 .131-.305 .131-.186 .131-.065 .065 0 0 0M.357 .499H.086C.111 .388 .227 .323 .367 .316V.208C.196 .208 .041 .281-.005 .353-.051 .281-.204 .208-.367 .208V.316C-.232 .323-.113 .387-.087 .499H-.354V.604H.357ZM-.472 .12H.472V.015H.204C.255-.037 .288-.104 .288-.186 .287-.364 .152-.475 0-.475-.157-.475-.289-.359-.289-.186-.289-.105-.256-.037-.206 .015H-.472Z" fill="#009578"/>
<path transform="matrix(1,0,0,-1,21.3323,33.610204)" d="M0 0V-.775H-.157V-.645H-.385V-.54H-.157V0ZM-.484-.962H0V-1.066H-.576C-.64-1.066-.688-1.001-.688-.927V-.717H-.53V-.915C-.53-.943-.512-.962-.484-.962M-.481-.389C-.467-.344-.46-.293-.46-.244V-.128H-.833V-.023H-.303V-.241C-.303-.29-.314-.345-.326-.389H-.216V-.494H-.486V-.676H-.645V-.494H-.88V-.389Z" fill="#009578"/>
<path transform="matrix(1,0,0,-1,15.4874,33.644304)" d="M0 0C0-.124 .101-.225 .225-.225 .35-.225 .451-.124 .451 0 .451 .019 .446 .037 .439 .054 .419 .095 .398 .115 .4 .164 .403 .23 .318 .231 .272 .231 .222 .231 .169 .224 .124 .202 .088 .183 .058 .156 .036 .122 .013 .087 .001 .047 0 .005Z" fill="#db2a30"/>
<path transform="matrix(1,0,0,-1,16.8566,33.925104)" d="M0 0C-.016 .025-.049 .025-.109 .014-.198-.003-.463-.057-.884-.071-1.077-.078-1.288-.078-1.501-.059-1.676-.044-2.005 .009-2.078 .017-2.118 .021-2.208 .027-2.254-.012-2.315-.062-2.298-.137-2.261-.198-2.261-.198-2.182-.326-1.997-.364-1.729-.408-1.314-.396-1.177-.381-.873-.353-.639-.309-.453-.258-.453-.258-.205-.187-.084-.119-.038-.094 .027-.044 0 0" fill="#009578"/>
<path transform="matrix(1,0,0,-1,15.9489,34.474004)" d="M0 0C-.151 .082-.331 .082-.48-.003-.721-.14-.805-.443-.661-.69-.544-.873-.388-.829-.344-.783-.288-.721-.309-.657-.338-.617-.399-.542-.405-.491-.405-.46-.405-.362-.326-.284-.229-.284-.178-.284-.129-.306-.096-.345-.049-.4-.043-.478-.047-.541-.067-.917-.221-1.242-.229-1.266-.235-1.283-.247-1.326-.214-1.344-.19-1.356-.16-1.345-.132-1.319-.061-1.259 .076-1.088 .148-.921 .188-.83 .284-.59 .253-.351 .221-.167 .102-.055 0 0" fill="#009578"/>
<path transform="matrix(1,0,0,-1,18.5728,25.710602)" d="M0 0V-1.526H-.266V-.78H-.932V-1.526H-1.197V0H-.932V-.602H-.266V0Z" fill="#009578"/>
<path transform="matrix(1,0,0,-1,19.3999,26.653904)" d="M0 0-.171-.023C-.316-.043-.419-.126-.419-.248-.419-.359-.342-.431-.254-.431-.116-.431 0-.365 0-.111ZM.058-.582C.045-.567 .021-.514 .018-.454-.093-.571-.223-.607-.332-.607-.528-.607-.677-.472-.677-.26-.677-.062-.528 .103-.268 .132L-.004 .161C-.004 .367-.113 .429-.229 .429-.349 .429-.468 .371-.561 .295L-.604 .483C-.489 .561-.367 .6-.21 .6-.004 .6 .249 .497 .249 .179V-.305C.249-.386 .26-.493 .297-.582Z" fill="#009578"/>
<path transform="matrix(1,0,0,-1,20.1008,26.0755)" d="M0 0V-.113C.101-.01 .215 .021 .326 .021 .598 .021 .765-.149 .765-.429V-1.161H.514V-.472C.514-.281 .423-.155 .262-.155 .116-.155 .002-.278 .002-.479V-1.161H-.247V0Z" fill="#009578"/>
<path transform="matrix(1,0,0,-1,21.6848,26.653904)" d="M0 0-.171-.023C-.316-.043-.419-.126-.419-.248-.419-.359-.342-.431-.254-.431-.117-.431 0-.365 0-.111ZM.058-.582C.045-.567 .021-.514 .018-.454-.093-.571-.223-.607-.332-.607-.528-.607-.677-.472-.677-.26-.677-.062-.528 .103-.268 .132L-.004 .161C-.004 .367-.113 .429-.229 .429-.349 .429-.468 .371-.561 .295L-.604 .483C-.489 .561-.367 .6-.21 .6-.004 .6 .248 .497 .248 .179V-.305C.248-.386 .26-.493 .297-.582Z" fill="#009578"/>
<path transform="matrix(1,0,0,-1,23.1855,25.9687)" d="M0 0C-.099 .072-.219 .097-.303 .097-.431 .097-.51 .027-.51-.074-.51-.184-.396-.27-.194-.417 .012-.571 .124-.681 .124-.874 .124-1.083-.051-1.289-.373-1.289-.507-1.289-.679-1.26-.809-1.182L-.751-.988C-.646-1.056-.509-1.106-.382-1.106-.252-1.106-.14-1.029-.14-.883-.14-.734-.278-.639-.41-.545-.607-.406-.775-.287-.775-.076-.775 .14-.6 .279-.324 .279-.19 .279-.035 .241 .064 .18Z" fill="#009578"/>
<path transform="matrix(1,0,0,-1,24.2095,26.537404)" d="M0 0C0 .188-.118 .328-.274 .328-.427 .328-.542 .186-.546 0ZM-.553-.149C-.547-.396-.406-.549-.21-.549-.08-.549 .027-.52 .136-.435L.173-.607C.046-.693-.095-.72-.237-.72-.577-.72-.794-.476-.794-.107-.794 .272-.563 .483-.272 .483 .048 .483 .239 .252 .239-.064 .239-.089 .239-.122 .237-.149Z" fill="#009578"/>
<path transform="matrix(1,0,0,-1,25.4782,27.168202)" d="M0 0C-.105-.064-.233-.089-.316-.089-.753-.089-.916 .252-.916 .507-.916 .809-.701 1.114-.303 1.114-.211 1.114-.112 1.095-.023 1.04L-.058 .87C-.132 .916-.214 .937-.291 .937-.464 .937-.66 .796-.66 .516-.66 .291-.512 .087-.291 .087-.21 .087-.116 .115-.027 .178Z" fill="#009578"/>
<path transform="matrix(1,0,0,-1,26.3692,27.236203)" d="M0 0V.111C-.101 .01-.217-.021-.326-.021-.598-.021-.765 .149-.765 .429V1.161H-.514V.472C-.514 .281-.423 .155-.262 .155-.117 .155-.002 .278-.002 .479V1.161H.246V0Z" fill="#009578"/>
<path transform="matrix(1,0,0,-1,27.0545,26.0755)" d="M0 0V-.134C.083-.048 .186 .021 .293 .021 .349 .021 .411 .019 .483-.019L.437-.196C.373-.163 .303-.157 .254-.161 .157-.169 .002-.256 .002-.483V-1.161H-.248V0Z" fill="#009578"/>
<path transform="matrix(1,0,0,-1,0,72.5669)" d="M27.658 46.491H27.908V45.33H27.658ZM27.635 46.788C27.635 46.876 27.701 46.946 27.783 46.946 27.864 46.946 27.932 46.876 27.932 46.788 27.932 46.701 27.864 46.633 27.783 46.633 27.701 46.633 27.635 46.701 27.635 46.788" fill="#009578"/>
<path transform="matrix(1,0,0,-1,28.458,25.7611)" d="M0 0V-.314H.297V-.47H0V-1.091C0-1.269 .076-1.32 .173-1.32 .225-1.32 .283-1.3 .322-1.277L.347-1.442C.262-1.479 .18-1.497 .08-1.497-.118-1.497-.252-1.364-.252-1.133V-.47H-.412V-.314H-.252V-.126Z" fill="#009578"/>
<path transform="matrix(1,0,0,-1,0,72.5669)" d="M28.93 46.491H29.18V45.33H28.93ZM28.906 46.788C28.906 46.876 28.973 46.946 29.054 46.946 29.135 46.946 29.204 46.876 29.204 46.788 29.204 46.701 29.135 46.633 29.054 46.633 28.973 46.633 28.906 46.701 28.906 46.788" fill="#009578"/>
<path transform="matrix(1,0,0,-1,30.1147,26.537404)" d="M0 0C0 .188-.118 .328-.274 .328-.427 .328-.542 .186-.545 0ZM-.553-.149C-.547-.396-.406-.549-.21-.549-.08-.549 .027-.52 .136-.435L.173-.607C.047-.693-.095-.72-.237-.72-.576-.72-.794-.476-.794-.107-.794 .272-.563 .483-.272 .483 .049 .483 .239 .252 .239-.064 .239-.089 .239-.122 .237-.149Z" fill="#009578"/>
<path transform="matrix(1,0,0,-1,31.1276,26.296704)" d="M0 0C-.085 .058-.167 .078-.235 .078-.332 .078-.396 .037-.396-.047-.396-.157-.215-.245-.142-.301-.017-.396 .076-.501 .076-.637 .076-.825-.087-.961-.34-.961-.452-.961-.59-.928-.685-.87L-.633-.689C-.541-.759-.435-.792-.359-.792-.241-.792-.171-.734-.171-.654-.171-.559-.239-.495-.373-.404-.52-.303-.642-.215-.642-.068-.642 .13-.487 .243-.25 .243-.144 .243-.033 .215 .043 .171Z" fill="#009578"/>
<path transform="matrix(1,0,0,-1,15.5351,25.445103)" d="M0 0C0-.131 .106-.237 .237-.237 .368-.237 .474-.131 .474 0 .474 .02 .469 .039 .461 .057 .441 .1 .418 .121 .42 .173 .423 .242 .334 .243 .286 .243 .234 .243 .178 .236 .131 .212 .093 .193 .061 .164 .038 .128 .014 .092 .001 .049 0 .006Z" fill="#db2a30"/>
<path transform="matrix(1,0,0,-1,16.9748,25.740403)" d="M0 0C-.017 .026-.051 .026-.115 .014-.208-.003-.487-.06-.929-.075-1.132-.082-1.355-.082-1.579-.062-1.762-.046-2.108 .01-2.186 .018-2.227 .022-2.322 .028-2.37-.012-2.434-.065-2.416-.145-2.378-.208-2.378-.208-2.294-.343-2.1-.382-1.818-.429-1.381-.417-1.238-.401-.918-.371-.671-.325-.476-.272-.476-.272-.215-.197-.088-.125-.04-.098 .029-.047 0 0" fill="#009578"/>
<path transform="matrix(1,0,0,-1,16.0204,26.317605)" d="M0 0C-.159 .086-.348 .087-.505-.003-.758-.147-.846-.466-.696-.725-.572-.918-.408-.872-.361-.823-.303-.758-.325-.691-.356-.649-.42-.57-.426-.516-.426-.483-.426-.381-.343-.298-.241-.298-.187-.298-.135-.322-.1-.363-.052-.421-.046-.503-.049-.569-.071-.965-.232-1.306-.24-1.331-.247-1.349-.26-1.394-.225-1.413-.199-1.426-.169-1.414-.139-1.387-.064-1.324 .079-1.144 .156-.968 .197-.873 .299-.621 .266-.369 .232-.175 .108-.058 0 0" fill="#009578"/>
<path transform="matrix(1,0,0,-1,18.7597,18.086304)" d="M0 0V-1.058H-.265V.715H0V.176H.255V0ZM-.945 .349C-1.052 .349-1.139 .184-1.137-.069-1.139-.31-1.054-.47-.947-.47-.837-.47-.754-.313-.754-.069-.754 .196-.833 .349-.945 .349M-1.082 .529V.715H-.807V.529H-.441V.353H-.633C-.547 .249-.492 .102-.49-.069-.492-.4-.678-.647-.945-.647-1.219-.649-1.401-.4-1.401-.069-1.401 .102-1.346 .249-1.26 .353H-1.44V.529Z" fill="#009578"/>
<path transform="matrix(1,0,0,-1,19.5072,18.458603)" d="M0 0H.445C.564 0 .654-.006 .766 .053V1.088H1.031V.549H1.285V.372H1.031V-.686H.766V-.123C.674-.165 .551-.176 .439-.176H-.147C-.263-.176-.351-.065-.351 .067V1.009H-.086V.073C-.086 .028-.057 0 0 0" fill="#009578"/>
<path transform="matrix(1,0,0,-1,21.6762,18.4057)" d="M0 0C-.106 0-.221-.116-.221-.313-.223-.513-.114-.623-.002-.623 .106-.623 .219-.513 .219-.313 .219-.11 .11 0 0 0M.6 .839H.145C.186 .653 .382 .543 .617 .531V.349C.329 .349 .069 .472-.008 .594-.086 .472-.343 .349-.617 .349V.531C-.39 .543-.19 .65-.147 .839H-.596V1.015H.6ZM-.794 .202H.794V.025H.343C.429-.063 .484-.174 .484-.313 .482-.611 .255-.799 0-.799-.265-.799-.486-.604-.486-.313-.486-.176-.431-.063-.347 .025H-.794Z" fill="#009578"/>
<path transform="matrix(1,0,0,-1,24.0854,17.371102)" d="M0 0V-1.303H-.264V-1.084H-.647V-.907H-.264V0ZM-.813-1.617H0V-1.793H-.968C-1.076-1.793-1.156-1.683-1.156-1.558V-1.205H-.892V-1.538C-.892-1.585-.86-1.617-.813-1.617M-.809-.654C-.786-.578-.774-.492-.774-.41V-.215H-1.401V-.039H-.51V-.406C-.51-.488-.527-.58-.549-.654H-.363V-.831H-.817V-1.137H-1.084V-.831H-1.479V-.654Z" fill="#009578"/>
<path transform="matrix(1,0,0,-1,15.5351,17.234002)" d="M0 0C0-.131 .106-.237 .237-.237 .368-.237 .474-.131 .474 0 .474 .02 .469 .039 .461 .057 .441 .1 .418 .121 .42 .173 .423 .242 .334 .243 .286 .243 .234 .243 .178 .236 .131 .212 .093 .193 .061 .164 .038 .128 .014 .092 .001 .049 0 .006Z" fill="#db2a30"/>
<path transform="matrix(1,0,0,-1,16.9748,17.5293)" d="M0 0C-.017 .026-.051 .026-.115 .014-.208-.003-.487-.06-.929-.075-1.132-.082-1.355-.082-1.579-.062-1.762-.046-2.108 .01-2.186 .018-2.227 .022-2.322 .028-2.37-.012-2.434-.065-2.416-.145-2.378-.208-2.378-.208-2.294-.343-2.1-.382-1.818-.429-1.381-.417-1.238-.401-.918-.371-.671-.325-.476-.272-.476-.272-.215-.197-.088-.125-.04-.098 .029-.047 0 0" fill="#009578"/>
<path transform="matrix(1,0,0,-1,16.0204,18.106503)" d="M0 0C-.159 .086-.348 .087-.505-.003-.758-.147-.846-.465-.696-.725-.572-.918-.408-.872-.361-.823-.303-.758-.325-.691-.356-.649-.42-.57-.426-.517-.426-.483-.426-.381-.343-.298-.241-.298-.187-.298-.135-.322-.1-.363-.052-.42-.046-.503-.049-.569-.071-.965-.232-1.306-.24-1.331-.247-1.349-.26-1.394-.225-1.413-.199-1.426-.169-1.414-.139-1.387-.064-1.324 .079-1.144 .156-.968 .197-.873 .299-.621 .266-.369 .232-.175 .108-.058 0 0" fill="#009578"/>
<path transform="matrix(1,0,0,-1,18.6115,42.745004)" d="M0 0H.271V.133H0V.37H.33V.503H0V.74H-.232V.503H-.466V.37H-.232V.133H-.421V0H-.232V-.29H-.466V-.423H-.232V-1.032H0V-.423H.123V-.604C.121-.788 .072-.803 .072-.803V-.916H.082C.206-.912 .353-.767 .353-.506V-.29H0Z" fill="#009578"/>
<path transform="matrix(1,0,0,-1,17.867,42.5793)" d="M0 0V-.165H-.327V0ZM0-.467H-.249C-.283-.467-.327-.438-.327-.403V-.298H0ZM-.044 .575H-.275V.417H-.548V.284H-.275V.133L-.547 .134V-.408C-.547-.513-.456-.598-.351-.598L-.275-.6V-.735H-.548V-.868H-.275V-1.197H-.044V-.868H.223V-.735H-.044V-.601H.091C.161-.601 .222-.544 .222-.474V.134L-.044 .133V.284H.223V.417H-.044Z" fill="#009578"/>
<path transform="matrix(1,0,0,-1,0,72.5669)" d="M19.977 29H19.84V30.325H19.977ZM20.219 30.325H20.711V30.458H19.108V30.325H19.597V29H19.087V28.867H20.732V29H20.219Z" fill="#009578"/>
<path transform="matrix(1,0,0,-1,20.4933,43.3079)" d="M0 0C0 0 .094 .368 .105 .753H-.12C-.117 .405-.21 0-.21 0Z" fill="#009578"/>
<path transform="matrix(1,0,0,-1,19.4122,42.5549)" d="M0 0H-.224C-.099-.318-.093-.753-.093-.753H.108C.108-.753 .111-.296 0 0" fill="#009578"/>
<path transform="matrix(1,0,0,-1,23.0922,43.094903)" d="M0 0H.445C.399-.155 .274-.436-.042-.502V-.637C-.042-.637 .521-.602 .715 0H.983V-.37C.983-.441 .926-.499 .855-.499H.693V-.633H.988C1.13-.633 1.246-.519 1.246-.376V.143H0Z" fill="#009578"/>
<path transform="matrix(1,0,0,-1,24.257,42.6819)" d="M0 0H.331V.144H-.641C-.599 .195-.562 .251-.529 .312H.211V.456H-.126C-.092 .486-.019 .562-.001 .682H-.239C-.26 .569-.323 .488-.351 .456H-.463C-.43 .543-.405 .638-.389 .743H-.648C-.659 .641-.682 .545-.716 .456H-.798C-.819 .604-.876 .674-.876 .674H-1.122C-1.122 .674-1.029 .592-.997 .456H-1.285V.312H-.782C-.816 .251-.856 .195-.902 .144H-1.405V0H-1.067C-1.182-.078-1.32-.132-1.479-.158V-.287C-1.223-.255-.977-.166-.781 0H-.307C-.1-.159 .156-.255 .405-.287V-.158C.245-.134 .111-.075 0 0" fill="#009578"/>
<path transform="matrix(1,0,0,-1,22.2572,43.580606)" d="M0 0V.656H.352V.788H0V1.374H.39V1.507H-.797V1.374H-.236V0H-.398V1.104H-.634V0H-.818V-.133H.411V0Z" fill="#009578"/>
<path transform="matrix(1,0,0,-1,21.3421,42.2676)" d="M0 0C-.191 .182-.402 .24-.402 .24V.041C-.402 .041-.191-.012 0-.208Z" fill="#009578"/>
<path transform="matrix(1,0,0,-1,20.9667,43.544504)" d="M0 0V-.19L.538 .202V.391L.288 .21V1.027H-.141V.895H.08V.168C.08 .083 .057 .042 0 0" fill="#009578"/>
<path transform="matrix(1,0,0,-1,15.5351,41.867303)" d="M0 0C0-.131 .106-.237 .237-.237 .368-.237 .474-.131 .474 0 .474 .02 .469 .039 .461 .057 .441 .1 .418 .121 .42 .173 .423 .242 .334 .243 .286 .243 .234 .243 .178 .236 .131 .212 .093 .193 .06 .164 .038 .128 .014 .092 .001 .049 0 .005Z" fill="#db2a30"/>
<path transform="matrix(1,0,0,-1,16.9748,42.1626)" d="M0 0C-.017 .026-.051 .026-.115 .014-.208-.003-.487-.06-.929-.075-1.132-.082-1.355-.082-1.579-.062-1.762-.046-2.108 .01-2.186 .018-2.227 .022-2.322 .028-2.37-.012-2.434-.065-2.416-.145-2.378-.208-2.378-.208-2.294-.343-2.1-.382-1.818-.429-1.381-.417-1.238-.401-.918-.371-.671-.325-.476-.272-.476-.272-.215-.197-.088-.125-.04-.098 .028-.047 0 0" fill="#009578"/>
<path transform="matrix(1,0,0,-1,16.0204,42.7398)" d="M0 0C-.159 .086-.348 .087-.505-.003-.758-.147-.846-.466-.696-.725-.572-.918-.408-.872-.361-.823-.303-.758-.325-.691-.356-.649-.42-.57-.426-.517-.426-.483-.426-.381-.343-.298-.241-.298-.187-.298-.135-.322-.1-.363-.052-.42-.046-.503-.049-.569-.071-.965-.232-1.306-.24-1.331-.247-1.349-.26-1.394-.225-1.413-.199-1.426-.169-1.414-.139-1.387-.064-1.324 .079-1.144 .156-.968 .197-.873 .299-.621 .266-.369 .232-.175 .108-.058 0 0" fill="#009578"/>
<path transform="matrix(1,0,0,-1,0,72.5669)" d="M25.496 68.192H25.444V68.842H25.496ZM25.184 68.813V68.636C25.183 68.524 25.271 68.444 25.358 68.402L25.331 68.361C25.275 68.393 25.193 68.449 25.156 68.538 25.123 68.446 25.05 68.391 24.976 68.346L24.942 68.383C25.041 68.438 25.129 68.522 25.129 68.639V68.813Z" fill="#1b1815"/>
<path transform="matrix(1,0,0,-1,26.2034,3.9160004)" d="M0 0H-.106V-.191H-.159V.191H-.106V.043H0ZM-.106-.462H-.159V-.272H-.531V-.228H-.106ZM-.303 .16C-.308-.048-.456-.133-.589-.182L-.615-.144C-.482-.095-.37-.022-.36 .116H-.583V.16Z" fill="#1b1815"/>
<path transform="matrix(1,0,0,-1,26.7776,4.100601)" d="M0 0H-.052V.176H-.187V.22H-.052V.376H0ZM0-.278H-.053V-.086H-.432V-.043H0ZM-.173 .029C-.234 .053-.312 .104-.342 .169-.371 .093-.443 .047-.51 .013L-.54 .048C-.456 .09-.37 .146-.37 .254V.301H-.508V.345H-.179V.301H-.316V.255C-.316 .151-.229 .101-.149 .069Z" fill="#1b1815"/>
<path transform="matrix(1,0,0,-1,0,72.5669)" d="M27.606 68.192H27.553002V68.842H27.606ZM27.379 68.581C27.379 68.694 27.345 68.765 27.265 68.765 27.186 68.765 27.15 68.696 27.15 68.581 27.15 68.469 27.187 68.396 27.265 68.396 27.346 68.396 27.379 68.469 27.379 68.581M27.432 68.58C27.432 68.43 27.372 68.351 27.264 68.351 27.162 68.351 27.097 68.43 27.097 68.58 27.097 68.732 27.162 68.808 27.264 68.808 27.371 68.808 27.432 68.731 27.432 68.58" fill="#1b1815"/>
<path transform="matrix(1,0,0,-1,0,72.5669)" d="M28.199 68.842H28.251999V68.192H28.199ZM28.002 68.751H27.805V68.412H28.002ZM28.053 68.368H27.751999V68.793H28.053Z" fill="#1b1815"/>
<path transform="matrix(1,0,0,-1,0,72.5669)" d="M28.886 68.192H28.833V68.842H28.886ZM28.732 68.356C28.676 68.388 28.596 68.444 28.56 68.534 28.527 68.442 28.456 68.386 28.383 68.341L28.349 68.378C28.447 68.433 28.533 68.518 28.533 68.635V68.751H28.385V68.794H28.735V68.751H28.587V68.632C28.587 68.52 28.671 68.44 28.758 68.398Z" fill="#1b1815"/>
<path transform="matrix(1,0,0,-1,29.49,4.190399)" d="M0 0C-.107 0-.171-.027-.171-.077-.171-.128-.107-.155 0-.155 .108-.155 .172-.129 .172-.077 .172-.026 .108 0 0 0M.23-.077C.23-.148 .156-.197 0-.197-.153-.197-.229-.148-.229-.077-.229-.006-.154 .042 0 .042 .156 .042 .23-.006 .23-.077M.306 .089H-.305V.132H-.027V.201H-.217V.454H.214V.411H-.165V.349H.213V.308H-.165V.244H.22V.201H.027V.132H.306Z" fill="#1b1815"/>
<path transform="matrix(1,0,0,-1,0,72.5669)" d="M30.365 68.522H30.313V68.843H30.365ZM30.381 68.189H29.942V68.356H30.309V68.442H29.942V68.483H30.364V68.316H29.996V68.23H30.381ZM30.137 68.691C30.137 68.751 30.089 68.795 30.02 68.795 29.946 68.795 29.902 68.751 29.902 68.691 29.902 68.632 29.946 68.587 30.02 68.587 30.09 68.587 30.137 68.631 30.137 68.691M30.02 68.837C30.123 68.837 30.19 68.773 30.19 68.691 30.19 68.608 30.123 68.544 30.02 68.544 29.919 68.544 29.849 68.608 29.849 68.691 29.849 68.773 29.921 68.837 30.02 68.837" fill="#1b1815"/>
<path transform="matrix(1,0,0,-1,31.0071,4.1001055)" d="M0 0H-.052V.204H-.194V.249H-.052V.376H0ZM-.041-.154C-.041-.098-.102-.059-.203-.059-.305-.059-.364-.098-.364-.154-.364-.207-.305-.246-.203-.246-.102-.246-.041-.207-.041-.154M.013-.154C.013-.231-.053-.287-.204-.287-.353-.287-.42-.229-.42-.154-.42-.079-.353-.018-.204-.018-.053-.018 .013-.076 .013-.154M-.173 .032C-.234 .056-.316 .107-.347 .171-.376 .096-.451 .05-.518 .016L-.547 .051C-.462 .092-.374 .149-.374 .256V.355H-.319V.257C-.319 .153-.229 .104-.149 .072Z" fill="#1b1815"/>
<path transform="matrix(1,0,0,-1,31.2332,3.8355027)" d="M0 0C0-.053 .076-.074 .167-.074 .261-.074 .336-.053 .336 0 .336 .048 .26 .071 .167 .071 .076 .071 0 .047 0 0M.407-.543H-.052V-.385H.334V-.311H-.052V-.27H.389V-.425H.005V-.502H.407ZM-.055 0C-.055 .068 .027 .112 .167 .112 .305 .112 .391 .069 .391 0 .391-.075 .306-.114 .167-.114 .027-.114-.055-.074-.055 0M.474-.208H-.136V-.165H.474Z" fill="#1b1815"/>
<path transform="matrix(1,0,0,-1,32.5633,3.9707032)" d="M0 0H-.106V-.176H-.158V.246H-.106V.045H0ZM-.31 .034C-.31 .069-.343 .092-.415 .092-.485 .092-.52 .069-.52 .034-.52 .001-.485-.023-.415-.023-.343-.023-.31 .002-.31 .034M-.106-.408H-.158V-.258H-.535V-.214H-.106ZM-.231 .154H-.605V.196H-.442V.267H-.388V.196H-.231ZM-.415 .129C-.316 .129-.258 .09-.258 .034-.258-.014-.306-.054-.39-.06V-.105C-.321-.102-.256-.099-.203-.093V-.133C-.31-.149-.472-.152-.626-.152V-.108C-.569-.109-.505-.108-.441-.106V-.06C-.526-.053-.571-.014-.571 .034-.571 .09-.516 .129-.415 .129" fill="#1b1815"/>
<path transform="matrix(1,0,0,-1,0,72.5669)" d="M33.059 68.645H32.727998V68.518H33.059ZM32.675 68.474V68.812H32.728V68.688H33.059V68.812H33.111V68.474ZM32.92 68.438V68.335H33.199V68.291H32.588V68.335H32.866V68.438Z" fill="#1b1815"/>
<path transform="matrix(1,0,0,-1,33.7503,3.7246018)" d="M0 0V-.296H.116V-.342H0V-.65H-.052V0ZM-.213-.356C-.213-.281-.249-.235-.324-.235-.396-.235-.435-.283-.435-.356-.435-.425-.396-.476-.324-.476-.249-.476-.213-.427-.213-.356M-.162-.356C-.162-.446-.22-.52-.324-.52-.425-.52-.488-.451-.488-.356-.488-.255-.424-.191-.324-.191-.22-.191-.162-.254-.162-.356M-.297-.102H-.124V-.145H-.526V-.102H-.353V-.001H-.297Z" fill="#1b1815"/>
<path transform="matrix(1,0,0,-1,0,72.5669)" d="M34.42 68.192H34.366998V68.842H34.42ZM34.229 68.794C34.227 68.53 34.107 68.418 33.948 68.332L33.912 68.371C34.088 68.463 34.171 68.58 34.172 68.751H33.933V68.794Z" fill="#1b1815"/>
<path transform="matrix(1,0,0,-1,0,72.5669)" d="M35.279 68.192H35.227V68.842H35.279ZM34.949 68.789C34.879 68.789 34.824 68.751 34.824 68.695 34.824 68.639 34.878 68.601 34.949 68.601 35.024 68.601 35.074 68.64 35.074 68.695 35.074 68.752 35.021 68.789 34.949 68.789M35.125 68.694C35.125 68.609 35.05 68.558 34.949 68.558 34.852 68.558 34.774 68.608 34.774 68.694 34.774 68.782 34.854 68.831 34.949 68.831 35.047 68.831 35.125 68.782 35.125 68.694M34.737 68.484C34.87 68.484 35.072 68.489 35.186 68.501V68.458C35.131 68.449 35.053 68.444 34.97 68.442V68.213H34.918V68.441C34.856 68.44 34.794 68.44 34.737 68.44Z" fill="#1b1815"/>
<path transform="matrix(1,0,0,-1,35.9363,4.375)" d="M0 0H-.052V.311H-.142V.021H-.193V.647H-.142V.358H-.052V.65H0ZM-.307 .3C-.307 .366-.339 .41-.408 .41-.474 .41-.508 .366-.508 .3-.508 .231-.475 .185-.408 .185-.337 .185-.307 .231-.307 .3M-.257 .299C-.257 .2-.315 .142-.408 .142-.5 .142-.558 .204-.558 .299-.558 .395-.499 .454-.408 .454-.316 .454-.257 .395-.257 .299M-.236 .495H-.578V.538H-.434V.642H-.379V.538H-.236Z" fill="#1b1815"/>
<path transform="matrix(1,0,0,-1,36.7503,4.375)" d="M0 0H-.051V.366H-.154V.021H-.206V.647H-.154V.413H-.051V.65H0ZM-.284 .598C-.285 .371-.37 .248-.514 .146L-.555 .178C-.428 .267-.34 .373-.34 .554H-.524V.598Z" fill="#1b1815"/>
<path transform="matrix(1,0,0,-1,37.4564,3.8936005)" d="M0 0H-.107V-.165H-.16V.169H-.107V.044H0ZM-.089-.485H-.523V-.323H-.16V-.243H-.523V-.202H-.105V-.364H-.468V-.444H-.089ZM-.348 .008H-.54399999V-.088H-.348ZM-.297-.131H-.596V.15H-.544V.051H-.348V.15H-.297Z" fill="#1b1815"/>
<path transform="matrix(1,0,0,-1,0,72.5669)" d="M38.028 68.365H37.976V68.841999H38.028ZM38.045 68.202H37.592V68.383H37.645V68.247H38.045ZM37.491 68.492C37.55 68.491 37.621 68.492 37.693 68.494V68.587H37.552V68.812H37.879V68.77H37.605V68.63H37.887V68.587H37.744V68.496C37.815 68.499 37.884 68.503 37.935 68.508V68.468C37.829 68.452 37.644 68.449 37.491 68.449Z" fill="#1b1815"/>
<path transform="matrix(1,0,0,-1,0,72.5669)" d="M38.857 68.192H38.805V68.842H38.857ZM38.544 68.813V68.636C38.544 68.524 38.631 68.444 38.718 68.402L38.692 68.361C38.636 68.393 38.553 68.449 38.516 68.538 38.483 68.446 38.41 68.391 38.336 68.346L38.303 68.383C38.401 68.438 38.49 68.522 38.49 68.639V68.813Z" fill="#1b1815"/>
<path transform="matrix(1,0,0,-1,39.3919,4.1455)" d="M0 0C.018 .092 .031 .225 .031 .329H-.358V.372H.088C.084 .233 .071 .104 .052 0ZM.172-.109H-.43800003V-.065H.172Z" fill="#1b1815"/>
<path transform="matrix(1,0,0,-1,0,72.5669)" d="M40.128 68.192H40.074998V68.842H40.128ZM40.016 68.391C39.906 68.375 39.759 68.375 39.65 68.375V68.805H39.703V68.42C39.824 68.42 39.923 68.423 40.016 68.435Z" fill="#1b1815"/>
<path transform="matrix(1,0,0,-1,40.7708,4.375)" d="M0 0H-.052V.368H-.182V.412H-.052V.65H0ZM-.158 .15C-.214 .182-.29 .242-.327 .328-.36 .236-.43 .181-.504 .136L-.538 .173C-.44 .228-.355 .312-.355 .429V.509H-.509V.552H-.355V.65H-.299V.552H-.145V.509H-.299V.427C-.299 .315-.218 .233-.131 .191Z" fill="#1b1815"/>
<path transform="matrix(1,0,0,-1,41.4017,3.9668046)" d="M0 0H-.449V.234H-.397V.045H0ZM.014-.398H-.453V-.203H-.4V-.354H.014ZM.074-.129H-.536V-.085999999H.074Z" fill="#1b1815"/>
<path transform="matrix(1,0,0,-1,42.2303,3.7246018)" d="M0 0V-.296H.116V-.342H0V-.65H-.052V0ZM-.213-.356C-.213-.281-.249-.235-.324-.235-.396-.235-.435-.283-.435-.356-.435-.425-.396-.476-.324-.476-.249-.476-.213-.427-.213-.356M-.162-.356C-.162-.446-.22-.52-.324-.52-.425-.52-.488-.451-.488-.356-.488-.255-.424-.191-.324-.191-.22-.191-.162-.254-.162-.356M-.298-.102H-.124V-.145H-.526V-.102H-.353V-.001H-.298Z" fill="#1b1815"/>
<path transform="matrix(1,0,0,-1,42.9832,3.9780045)" d="M0 0H-.116V-.397H-.168V.253H-.116V.045H0ZM-.221-.198C-.331-.214-.486-.214-.595-.214V.216H-.542V-.169C-.421-.169-.316-.166-.221-.154Z" fill="#1b1815"/>
<path transform="matrix(1,0,0,-1,0,72.5669)" d="M43.478 68.398H43.141V68.238H43.478ZM43.53 68.195H43.088998V68.441H43.53ZM43.615 68.533H43.004V68.577H43.445C43.454 68.631 43.469 68.734 43.47 68.778H43.088V68.823H43.528C43.527 68.773 43.509 68.635 43.5 68.577H43.615Z" fill="#1b1815"/>
<path transform="matrix(1,0,0,-1,43.9461,4.1400988)" d="M0 0C.036 0 .066-.003 .094-.007V.08H-.092V-.007C-.065-.003-.035 0 0 0M-.169 .297C-.169 .244-.085 .224-.001 .224 .085 .224 .167 .244 .167 .297 .167 .345 .081 .368-.001 .368-.085 .368-.169 .344-.169 .297M0-.041C-.107-.041-.171-.073-.171-.123-.171-.172-.107-.205 0-.205 .108-.205 .172-.174 .172-.123 .172-.071 .108-.041 0-.041M-.224 .297C-.224 .365-.138 .41-.001 .41 .134 .41 .222 .366 .222 .297 .222 .223 .133 .182-.001 .182-.138 .182-.224 .224-.224 .297M.306 .08H.146V-.021C.202-.044 .23-.08 .23-.123 .23-.193 .156-.247 0-.247-.153-.247-.229-.193-.229-.123-.229-.08-.202-.044-.146-.021V.08H-.305V.123H.306Z" fill="#1b1815"/>
<path transform="matrix(1,0,0,-1,44.7171,4.1455)" d="M0 0C.018 .092 .031 .225 .031 .329H-.358V.372H.088C.085 .233 .071 .104 .052 0ZM.172-.109H-.43800003V-.065H.172Z" fill="#1b1815"/>
<path transform="matrix(1,0,0,-1,0,72.5669)" d="M45.389 68.317H45.052V68.238H45.389ZM45.004 68.59V68.731H45.383V68.788H45.004V68.831H45.435V68.69H45.057V68.632H45.452V68.59ZM45.441 68.195H45V68.44H45.052V68.36H45.389V68.44H45.441ZM45.526 68.492H45.247V68.405H45.192V68.492H44.916V68.536H45.526Z" fill="#1b1815"/>
<path transform="matrix(1,0,0,-1,0,72.5669)" d="M46.109 68.192H46.057004V68.842H46.109ZM45.894 68.652C45.894 68.72 45.848 68.765 45.772 68.765 45.698 68.765 45.649 68.714 45.649 68.652 45.649 68.586 45.696 68.54 45.773 68.54 45.85 68.54 45.894 68.585 45.894 68.652M45.775 68.496C45.674 68.496 45.596 68.56 45.596 68.653 45.596 68.744 45.675 68.81 45.772 68.81 45.879 68.81 45.948 68.738 45.948 68.651 45.948 68.562 45.882 68.496 45.775 68.496M45.566 68.377C45.699 68.376 45.901 68.38 46.015 68.393V68.35C45.91 68.334 45.719 68.332 45.566 68.332Z" fill="#1b1815"/>
<path transform="matrix(1,0,0,-1,0,72.5669)" d="M46.929 68.192H46.876V68.842H46.929ZM46.702 68.581C46.702 68.694 46.668 68.765 46.588 68.765 46.509 68.765 46.473 68.696 46.473 68.581 46.473 68.469 46.51 68.396 46.588 68.396 46.669 68.396 46.702 68.469 46.702 68.581M46.755 68.58C46.755 68.43 46.695 68.351 46.587 68.351 46.485 68.351 46.42 68.43 46.42 68.58 46.42 68.732 46.485 68.808 46.587 68.808 46.694 68.808 46.755 68.731 46.755 68.58" fill="#1b1815"/>
<path transform="matrix(1,0,0,-1,0,72.5669)" d="M47.522 68.842H47.575V68.192H47.522ZM47.325 68.751H47.128004V68.412H47.325ZM47.376 68.368H47.075V68.793H47.376Z" fill="#1b1815"/>
<path transform="matrix(1,0,0,-1,0,72.5669)" d="M48.208 68.192H48.155V68.842H48.208ZM48.055 68.356C47.998 68.388 47.919 68.444 47.883 68.534 47.849 68.442 47.779 68.386 47.705 68.341L47.672 68.378C47.769 68.433 47.855 68.518 47.855 68.635V68.751H47.708V68.794H48.057V68.751H47.91V68.632C47.91 68.52 47.994 68.44 48.081 68.398Z" fill="#1b1815"/>
<path transform="matrix(1,0,0,-1,48.3924,3.9688035)" d="M0 0V.14H.378V.198H0V.239H.431V.101H.054V.042H.448V0ZM.456-.41H-.003V-.262H.383V-.197H-.003V-.157H.438V-.3H.054V-.369H.456ZM.523-.099H-.08700001V-.055H.523Z" fill="#1b1815"/>
<path transform="matrix(1,0,0,-1,0,72.5669)" d="M25.499 67.522H25.447V67.843H25.499ZM25.514 67.189H25.075V67.356H25.443V67.442H25.075V67.483H25.498V67.316H25.129V67.23H25.514ZM25.271 67.691C25.271 67.751 25.222 67.795 25.153 67.795 25.079 67.795 25.035 67.751 25.035 67.691 25.035 67.632 25.079 67.587 25.153 67.587 25.223 67.587 25.271 67.631 25.271 67.691M25.153 67.837C25.256 67.837 25.324 67.773 25.324 67.691 25.324 67.608 25.256 67.544 25.153 67.544 25.053 67.544 24.982 67.608 24.982 67.691 24.982 67.773 25.054 67.837 25.153 67.837" fill="#1b1815"/>
<path transform="matrix(1,0,0,-1,26.2191,4.9751055)" d="M0 0H-.106V-.216H-.158V.251H-.106V.044H0ZM-.085-.39H-.525V-.191H-.472V-.345H-.085ZM-.262 .217C-.264 .153-.276 .04-.284-.004H-.337C-.329 .04-.321 .127-.319 .174H-.585V.217ZM-.626-.074C-.583-.075-.536-.074-.488-.074V.068H-.434V-.072C-.35-.069-.267-.065-.203-.059V-.101C-.31-.115-.472-.118-.626-.118Z" fill="#1b1815"/>
<path transform="matrix(1,0,0,-1,0,72.5669)" d="M26.807 67.192H26.755V67.842H26.807ZM26.318 67.524V67.802H26.658V67.759H26.371V67.567H26.666V67.524ZM26.263 67.369C26.319 67.368 26.397 67.369 26.462 67.371V67.488H26.515V67.372C26.585 67.375 26.662 67.378 26.715 67.384V67.341C26.608 67.326 26.416 67.324 26.263 67.324Z" fill="#1b1815"/>
<path transform="matrix(1,0,0,-1,0,72.5669)" d="M27.437 67.192H27.386V67.842H27.437ZM27.305 67.213H27.253V67.55H27.145V67.596H27.253V67.839H27.305ZM27.153 67.79C27.152 67.563 27.067 67.44 26.924 67.338L26.883 67.37C27.009 67.459 27.098 67.565 27.098 67.746H26.913V67.79Z" fill="#1b1815"/>
<path transform="matrix(1,0,0,-1,28.2762,5.1836016)" d="M0 0H-.052V.248H-.187V.292H-.052V.459H0ZM.016-.181H-.419V.03H-.366V-.137H.016ZM-.316 .381V.318C-.316 .213-.229 .165-.149 .133L-.173 .093C-.234 .116-.312 .167-.343 .232-.371 .157-.443 .11-.51 .077L-.54 .111C-.456 .153-.37 .21-.37 .317V.381H-.508V.424H-.179V.381Z" fill="#1b1815"/>
<path transform="matrix(1,0,0,-1,28.9803,4.8788988)" d="M0 0H-.107V-.169H-.16V.154H-.107V.043H0ZM-.089-.499H-.523V-.332H-.16V-.247H-.523V-.206H-.105V-.373H-.468V-.458H-.089ZM-.205-.119C-.285-.127-.373-.133-.588-.133V.132H-.282V.088H-.536V-.09C-.388-.09-.279-.086-.205-.077Z" fill="#1b1815"/>
<path transform="matrix(1,0,0,-1,29.5281,4.7246019)" d="M0 0V-.296H.116V-.342H0V-.65H-.052V0ZM-.213-.356C-.213-.281-.249-.235-.324-.235-.396-.235-.435-.283-.435-.356-.435-.425-.396-.476-.324-.476-.249-.476-.213-.427-.213-.356M-.162-.356C-.162-.446-.22-.52-.324-.52-.425-.52-.488-.451-.488-.356-.488-.255-.424-.191-.324-.191-.22-.191-.162-.254-.162-.356M-.298-.102H-.124V-.145H-.526V-.102H-.353V-.001H-.298Z" fill="#1b1815"/>
<path transform="matrix(1,0,0,-1,0,72.5669)" d="M30.198 67.192H30.145V67.842H30.198ZM30.007 67.794C30.005 67.53 29.885 67.418 29.726 67.332L29.69 67.371C29.865 67.463 29.949 67.58 29.95 67.751H29.711V67.794Z" fill="#1b1815"/>
<path transform="matrix(1,0,0,-1,0,72.5669)" d="M31.057 67.192H31.005V67.842H31.057ZM30.727 67.789C30.657 67.789 30.602 67.751 30.602 67.695 30.602 67.639 30.656 67.601 30.727 67.601 30.802 67.601 30.851 67.64 30.851 67.695 30.851 67.752 30.799 67.789 30.727 67.789M30.903 67.694C30.903 67.609 30.827 67.558 30.727 67.558 30.63 67.558 30.552 67.608 30.552 67.694 30.552 67.782 30.632 67.831 30.727 67.831 30.825 67.831 30.903 67.782 30.903 67.694M30.514 67.484C30.648 67.484 30.85 67.489 30.964 67.501V67.458C30.909 67.449 30.831 67.444 30.748 67.442V67.213H30.695V67.441C30.634 67.44 30.572 67.44 30.514 67.44Z" fill="#1b1815"/>
<path transform="matrix(1,0,0,-1,31.657,4.7246019)" d="M0 0V-.214H.107V-.258H0V-.472H-.052V0ZM.023-.64H-.409V-.451H-.356V-.596H.023ZM-.433-.276C-.433-.325-.397-.365-.325-.365-.254-.365-.22-.328-.22-.276-.22-.228-.254-.191-.325-.191-.396-.191-.433-.228-.433-.276M-.326-.406C-.423-.406-.485-.347-.485-.277-.485-.205-.422-.151-.325-.151-.226-.151-.168-.206-.168-.277-.168-.345-.226-.406-.326-.406M-.131-.121H-.521V-.08H-.354V.006H-.298V-.08H-.131Z" fill="#1b1815"/>
<path transform="matrix(1,0,0,-1,32.5335,5.142105)" d="M0 0H-.053V.189H-.187V.233H-.053V.417H0ZM.009-.237C-.075-.213-.165-.15-.204-.082-.24-.146-.329-.21-.417-.237L-.444-.199C-.367-.178-.232-.1-.232-.013V.03H-.176V-.013C-.176-.099-.042-.178 .036-.199ZM-.208 .382C-.209 .17-.357 .074-.495 .024L-.523 .062C-.383 .117-.271 .196-.266 .34H-.487V.382Z" fill="#1b1815"/>
<path transform="matrix(1,0,0,-1,0,72.5669)" d="M33.166 67.192H33.113V67.842H33.166ZM32.938 67.581C32.938 67.694 32.905 67.765 32.825 67.765 32.746 67.765 32.709 67.696 32.709 67.581 32.709 67.469 32.746 67.396 32.825 67.396 32.906 67.396 32.938 67.469 32.938 67.581M32.992 67.58C32.992 67.43 32.932 67.351 32.824 67.351 32.721 67.351 32.657 67.43 32.657 67.58 32.657 67.732 32.721 67.808 32.824 67.808 32.931 67.808 32.992 67.731 32.992 67.58" fill="#1b1815"/>
<path transform="matrix(1,0,0,-1,0,72.5669)" d="M33.738 67.759H33.406999V67.547008H33.738ZM33.354 67.802H33.79V67.502H33.354ZM33.878 67.303H33.267999V67.347H33.878Z" fill="#1b1815"/>
<path transform="matrix(1,0,0,-1,33.9915,5.102104)" d="M0 0V.194H.38V.3H-.002V.343H.432V.151H.053V.044H.454V0ZM.245-.029V-.13H.523V-.173H-.087V-.13H.191V-.029Z" fill="#1b1815"/>
<path transform="matrix(1,0,0,-1,35.2591,4.7246019)" d="M0 0V-.235H.115V-.281H0V-.65H-.052V0ZM-.3-.029V-.206C-.301-.318-.213-.398-.126-.44L-.153-.482C-.21-.45-.291-.394-.328-.305-.361-.396-.434-.452-.507-.497L-.542-.46C-.443-.405-.356-.321-.356-.204V-.029Z" fill="#1b1815"/>
<path transform="matrix(1,0,0,-1,35.7068,4.963402)" d="M0 0C-.032 0-.061 .003-.086 .007V-.071H.09V.008C.064 .003 .033 0 0 0M-.167 .119C-.167 .065-.093 .043 0 .043 .096 .043 .169 .065 .169 .119 .169 .167 .094 .192 0 .192-.093 .192-.167 .166-.167 .119M.001-.216C-.106-.216-.17-.249-.17-.299-.17-.349-.106-.382 .001-.382 .109-.382 .173-.35 .173-.299 .173-.247 .109-.216 .001-.216M.231-.299C.231-.37 .157-.424 .001-.424-.152-.424-.227-.37-.227-.299-.227-.227-.153-.175 .001-.175 .157-.175 .231-.227 .231-.299M.307-.115H-.304V-.071H-.139V.02C-.194 .041-.223 .075-.223 .119-.223 .187-.143 .235 0 .235 .139 .235 .223 .187 .223 .119 .223 .075 .194 .042 .142 .022V-.071H.307Z" fill="#1b1815"/>
<path transform="matrix(1,0,0,-1,0,72.5669)" d="M36.598 67.192H36.547V67.842H36.598ZM36.102 67.575C36.102 67.474 36.134 67.395 36.197 67.395 36.264 67.395 36.293 67.473 36.293 67.575 36.293 67.675 36.264 67.755 36.197 67.755 36.129 67.755 36.102 67.675 36.102 67.575M36.198 67.8C36.283 67.8 36.335 67.727 36.343 67.605H36.424V67.839H36.476V67.213H36.424V67.558H36.344C36.34 67.428 36.288 67.348 36.198 67.348 36.108 67.348 36.052 67.435 36.052 67.574 36.052 67.714 36.105 67.8 36.198 67.8" fill="#1b1815"/>
<path transform="matrix(1,0,0,-1,0,72.5669)" d="M37.371 67.842H37.422998V67.479007H37.371ZM36.96 67.672C36.96 67.613 37.001 67.56 37.078 67.56 37.157 67.56 37.196 67.614 37.196 67.672 37.196 67.731 37.156 67.786 37.078 67.786 37.003 67.786 36.96 67.731 36.96 67.672M37.448 67.189C37.396 67.219 37.349 67.265 37.329 67.315 37.307 67.264 37.263 67.219 37.212 67.189 37.15 67.227 37.117 67.267 37.094 67.315 37.077 67.27 37.029 67.22 36.973 67.189L36.94 67.223C37.012 67.266 37.068 67.33 37.068 67.4V67.441H37.12V67.4C37.12 67.343 37.159 67.278 37.211 67.243 37.264 67.277 37.302 67.343 37.302 67.4V67.441H37.356V67.4C37.356 67.322 37.411 67.258 37.481 67.223ZM37.078 67.828C37.184 67.828 37.248 67.756 37.248 67.672 37.248 67.59 37.185 67.517 37.078 67.517 36.971 67.517 36.907 67.59 36.907 67.672 36.907 67.755 36.973 67.828 37.078 67.828" fill="#1b1815"/>
<path transform="matrix(1,0,0,-1,38.0608,5.375)" d="M0 0H-.052V.372H-.158V.419H-.052V.65H0ZM-.242 .382C-.242 .496-.279 .565-.352 .565-.423 .565-.461 .497-.461 .382-.461 .27-.423 .196-.352 .196-.279 .196-.242 .27-.242 .382M-.189 .381C-.189 .231-.252 .152-.352 .152-.451 .152-.514 .231-.514 .381-.514 .533-.451 .609-.352 .609-.252 .609-.189 .533-.189 .381" fill="#1b1815"/>
<path transform="matrix(1,0,0,-1,38.4456,5.004402)" d="M0 0V.268H.431V.225H.052V.156H.431V.115H.052V.042H.437V0ZM.439-.374H.386V-.212H-.012V-.169H.439ZM.523-.109H-.08700001V-.065H.523Z" fill="#1b1815"/>
<path transform="matrix(1,0,0,-1,39.368,4.8101046)" d="M0 0H.115V.085H.168V-.248H.115V-.163H0V-.122H.115V-.042H0ZM.183-.568H-.256V-.407H.112V-.329H-.256V-.287H.167V-.448H-.202V-.527H.183ZM-.088-.077H-.28100003V-.176H-.088ZM-.037-.219H-.332V.066H-.281V-.035H-.088V.066H-.037Z" fill="#1b1815"/>
<path transform="matrix(1,0,0,-1,40.1507,4.7246019)" d="M0 0V-.214H.106V-.258H0V-.472H-.052V0ZM.023-.64H-.409V-.451H-.356V-.596H.023ZM-.433-.276C-.433-.325-.397-.365-.325-.365-.254-.365-.22-.328-.22-.276-.22-.228-.254-.191-.325-.191-.396-.191-.433-.228-.433-.276M-.326-.406C-.423-.406-.485-.347-.485-.277-.485-.205-.422-.151-.325-.151-.226-.151-.168-.206-.168-.277-.168-.345-.226-.406-.326-.406M-.131-.121H-.521V-.08H-.354V.006H-.298V-.08H-.131Z" fill="#1b1815"/>
<path transform="matrix(1,0,0,-1,40.534,4.975601)" d="M0 0C.094 .02 .229 .088 .229 .17V.18H.035V.224H.479V.18H.286V.17C.286 .091 .417 .021 .514 0L.489-.041C.399-.019 .303 .038 .257 .103 .208 .031 .111-.021 .025-.041ZM.563-.154H.285V-.399H.23V-.154H-.047V-.11H.563Z" fill="#1b1815"/>
<path transform="matrix(1,0,0,-1,0,72.5669)" d="M41.68 67.192H41.628004V67.842H41.68ZM41.465 67.652C41.465 67.72 41.419 67.765 41.343 67.765 41.268 67.765 41.22 67.714 41.22 67.652 41.22 67.586 41.267 67.54 41.344 67.54 41.421 67.54 41.465 67.585 41.465 67.652M41.346 67.496C41.244 67.496 41.167 67.56 41.167 67.653 41.167 67.744 41.246 67.81 41.343 67.81 41.45 67.81 41.518 67.738 41.518 67.651 41.518 67.562 41.452 67.496 41.346 67.496M41.137 67.377C41.27 67.376 41.472 67.38 41.586 67.393V67.35C41.48 67.334 41.289 67.332 41.137 67.332Z" fill="#1b1815"/>
<path transform="matrix(1,0,0,-1,42.265,4.7246019)" d="M0 0V-.249H.116V-.296H0V-.65H-.053V0ZM-.191-.049C-.193-.312-.309-.424-.467-.511L-.503-.472C-.327-.379-.249-.262-.248-.092H-.483V-.049Z" fill="#1b1815"/>
<path transform="matrix(1,0,0,-1,0,72.5669)" d="M43.149 67.505H43.097V67.841999H43.149ZM43.163 67.189H42.725V67.349H43.093V67.428H42.725V67.47H43.147V67.308H42.78V67.23H43.163ZM42.629 67.82H42.998V67.777H42.629ZM42.615 67.58C42.64 67.58 42.669 67.579 42.698 67.58L42.691 67.744H42.744L42.749 67.581C42.792 67.581 42.836 67.583 42.879 67.585L42.884 67.744H42.936L42.93 67.587C42.971 67.589 43.01 67.592 43.042 67.595V67.555C42.936 67.539 42.767 67.536 42.615 67.536Z" fill="#1b1815"/>
<path transform="matrix(1,0,0,-1,43.7156,4.9155046)" d="M0 0C0 .072-.062 .121-.172 .121-.284 .121-.345 .07-.345 0-.345-.067-.283-.121-.172-.121-.062-.121 0-.067 0 0M.054 0C.054-.089-.026-.165-.172-.165-.317-.165-.397-.089-.397 0-.397 .088-.317 .166-.172 .166-.027 .166 .054 .088 .054 0M-.023-.192V-.309H.133V-.353H-.477V-.309H-.319V-.192H-.267V-.309H-.075V-.192Z" fill="#1b1815"/>
<path transform="matrix(1,0,0,-1,44.4007,4.7246019)" d="M0 0V-.296H.116V-.342H0V-.65H-.052V0ZM-.213-.356C-.213-.281-.249-.235-.324-.235-.396-.235-.435-.283-.435-.356-.435-.425-.396-.476-.324-.476-.249-.476-.213-.427-.213-.356M-.162-.356C-.162-.446-.22-.52-.324-.52-.425-.52-.488-.451-.488-.356-.488-.255-.424-.191-.324-.191-.22-.191-.162-.254-.162-.356M-.297-.102H-.123V-.145H-.526V-.102H-.353V-.001H-.297Z" fill="#1b1815"/>
<path transform="matrix(1,0,0,-1,45.157,4.9990007)" d="M0 0H-.116V-.376H-.168V.274H-.116V.046H0ZM-.221-.183C-.337-.199-.482-.198-.599-.198V.226H-.288V.183H-.545V-.151C-.459-.151-.329-.152-.221-.138Z" fill="#1b1815"/>
<path transform="matrix(1,0,0,-1,0,72.5669)" d="M45.218 67.313H45.295V67.241008H45.218Z" fill="#1b1815"/>
<path transform="matrix(1,0,0,-1,46.1785,4.9160006)" d="M0 0H-.106V-.191H-.159V.191H-.106V.043H0ZM-.106-.462H-.159V-.272H-.531V-.228H-.106ZM-.303 .16C-.308-.048-.455-.133-.589-.182L-.615-.144C-.482-.095-.37-.022-.36 .116H-.582V.16Z" fill="#1b1815"/>
<path transform="matrix(1,0,0,-1,46.9227,4.7246019)" d="M0 0V-.235H.115V-.281H0V-.65H-.052V0ZM-.3-.029V-.206C-.301-.318-.213-.398-.126-.44L-.153-.482C-.21-.45-.291-.394-.328-.305-.361-.396-.434-.452-.507-.497L-.542-.46C-.443-.405-.355-.321-.355-.204V-.029Z" fill="#1b1815"/>
<path transform="matrix(1,0,0,-1,47.4393,4.8101046)" d="M0 0H.115V.085H.168V-.288H.115V-.179H0V-.136H.115V-.043H0ZM.119-.443C.119-.386 .059-.348-.042-.348-.145-.348-.204-.387-.204-.443-.204-.496-.145-.536-.042-.536 .059-.536 .119-.496 .119-.443M.174-.442C.174-.52 .107-.577-.043-.577-.191-.577-.26-.518-.26-.442-.26-.367-.191-.307-.043-.307 .107-.307 .174-.365 .174-.442M-.096 .009H-.28100003V-.195H-.096ZM-.044-.237H-.333V.052H-.044Z" fill="#1b1815"/>
<path transform="matrix(1,0,0,-1,48.4437,5.0874025)" d="M0 0C-.083 .026-.191 .094-.232 .168-.27 .094-.371 .033-.464 0L-.494 .039C-.396 .068-.261 .149-.261 .242V.281H-.456V.325H-.007V.281H-.203V.242C-.203 .149-.068 .071 .03 .038ZM.074-.18H-.537V-.137H-.259V.013H-.206V-.137H.074Z" fill="#1b1815"/>
<path transform="matrix(1,0,0,-1,49.1688,4.937004)" d="M0 0H-.107V-.143H-.159V.212H-.107V.043H0ZM-.157-.309H-.463V-.39099998H-.157ZM-.105-.435H-.516V-.184H-.463V-.266H-.157V-.184H-.105ZM-.539-.033C-.539-.072-.501-.107-.432-.107-.362-.107-.326-.074-.326-.033-.326 .006-.362 .037-.432 .037-.502 .037-.539 .006-.539-.033M-.432-.147C-.532-.147-.592-.095-.592-.034-.592 .028-.533 .076-.432 .076-.331 .076-.275 .028-.275-.034-.275-.093-.331-.147-.432-.147M-.238 .106H-.628V.147H-.461V.226H-.405V.147H-.238Z" fill="#1b1815"/>
<path transform="matrix(1,0,0,-1,0,72.5669)" d="M49.751 67.192H49.699V67.842H49.751ZM49.536 67.652C49.536 67.72 49.491 67.765 49.414 67.765 49.34 67.765 49.291 67.714 49.291 67.652 49.291 67.586 49.338 67.54 49.415 67.54 49.492 67.54 49.536 67.585 49.536 67.652M49.417 67.496C49.316 67.496 49.239 67.56 49.239 67.653 49.239 67.744 49.317 67.81 49.414 67.81 49.521 67.81 49.59 67.738 49.59 67.651 49.59 67.562 49.523 67.496 49.417 67.496M49.208 67.377C49.341 67.376 49.543 67.38 49.658 67.393V67.35C49.552 67.334 49.361 67.332 49.208 67.332Z" fill="#1b1815"/>
<path transform="matrix(1,0,0,-1,0,72.5669)" d="M25.492 66.192H25.439002V66.842H25.492ZM25.301 66.794C25.299 66.53 25.18 66.418 25.02 66.332L24.985 66.371C25.16 66.463 25.243 66.58 25.244 66.751H25.006V66.794Z" fill="#1b1815"/>
<path transform="matrix(1,0,0,-1,26.1434,6.3647997)" d="M0 0H-.466V.21H-.414V.044H0ZM-.016 .385C-.124 .407-.21 .465-.247 .523-.276 .465-.366 .409-.473 .385L-.499 .423C-.387 .447-.289 .501-.274 .576H-.466V.621H-.025V.576H-.217C-.205 .501-.095 .445 .009 .423ZM.06 .283H-.21V.134H-.262V.283H-.55V.327H.06Z" fill="#1b1815"/>
<path transform="matrix(1,0,0,-1,0,72.5669)" d="M26.788 66.192H26.737V66.842H26.788ZM26.292 66.575C26.292 66.474 26.324 66.395 26.387 66.395 26.454 66.395 26.483 66.473 26.483 66.575 26.483 66.675 26.454 66.755 26.387 66.755 26.319 66.755 26.292 66.675 26.292 66.575M26.387 66.8C26.473 66.8 26.525 66.727 26.533 66.605H26.614V66.839H26.666V66.213H26.614V66.558H26.534C26.53 66.428 26.478 66.348 26.387 66.348 26.298 66.348 26.242 66.435 26.242 66.574 26.242 66.714 26.295 66.8 26.387 66.8" fill="#1b1815"/>
<path transform="matrix(1,0,0,-1,27.721,5.9981005)" d="M0 0H-.116V-.377H-.169V.273H-.116V.045H0ZM-.209-.19C-.256-.197-.317-.2-.413-.2V.225H-.234V.182H-.362V-.155C-.299-.155-.236-.15-.209-.147ZM-.448-.197C-.468-.199-.562-.202-.629-.202V.225H-.466V.182H-.577V-.157C-.526-.157-.462-.154-.448-.152Z" fill="#1b1815"/>
<path transform="matrix(1,0,0,-1,28.2464,5.7246019)" d="M0 0V-.241H.116V-.287H0V-.65H-.053V0ZM-.104-.477C-.222-.49-.37-.491-.481-.491V-.239H-.244V-.085H-.481V-.042H-.192V-.281H-.429V-.444C-.3-.444-.219-.442-.104-.432Z" fill="#1b1815"/>
<path transform="matrix(1,0,0,-1,29.097,5.7246019)" d="M0 0V-.185H.107V-.229H0V-.466H-.053V0ZM.023-.64H-.409V-.424H-.356V-.596H.023ZM-.241-.188H-.43699999V-.306H-.241ZM-.19-.35H-.489V-.029H-.437V-.144H-.241V-.029H-.19Z" fill="#1b1815"/>
<path transform="matrix(1,0,0,-1,29.3099,6.0746996)" d="M0 0V.307H.44V.263H.052V.044H.449V0ZM.524-.189H-.086000028V-.145H.524Z" fill="#1b1815"/>
<path transform="matrix(1,0,0,-1,0,72.5669)" d="M30.401 66.192H30.348999V66.842H30.401ZM30.089 66.813V66.636C30.088 66.524 30.176 66.444 30.262 66.402L30.236 66.361C30.18 66.393 30.098 66.449 30.06 66.538 30.028 66.446 29.954 66.391 29.881 66.346L29.847 66.383C29.946 66.438 30.034 66.522 30.034 66.639V66.813Z" fill="#1b1815"/>
<path transform="matrix(1,0,0,-1,31.2483,6.0986025)" d="M0 0H-.052V.171H-.187V.215H-.052V.374H0ZM-.048-.155C-.048-.098-.109-.061-.21-.061-.312-.061-.371-.099-.371-.155-.371-.208-.312-.247-.21-.247-.109-.247-.048-.209-.048-.155M.006-.154C.006-.232-.061-.289-.21-.289-.359-.289-.427-.23-.427-.154-.427-.079-.359-.02-.21-.02-.061-.02 .006-.077 .006-.154M-.173 .027C-.234 .051-.312 .098-.342 .162-.371 .087-.443 .045-.51 .011L-.541 .045C-.456 .087-.37 .139-.37 .246V.298H-.508V.34H-.179V.298H-.316V.247C-.316 .143-.229 .098-.149 .066Z" fill="#1b1815"/>
<path transform="matrix(1,0,0,-1,31.9642,5.970703)" d="M0 0H-.106V-.176H-.158V.246H-.106V.045H0ZM-.31 .034C-.31 .069-.342 .092-.415 .092-.485 .092-.52 .069-.52 .034-.52 .001-.485-.023-.415-.023-.342-.023-.31 .002-.31 .034M-.106-.408H-.158V-.258H-.535V-.214H-.106ZM-.231 .154H-.605V.196H-.442V.267H-.388V.196H-.231ZM-.415 .129C-.316 .129-.258 .09-.258 .034-.258-.014-.306-.054-.39-.06V-.105C-.321-.102-.256-.099-.203-.093V-.133C-.31-.149-.472-.152-.626-.152V-.108C-.569-.109-.505-.108-.441-.106V-.06C-.526-.053-.571-.014-.571 .034-.571 .09-.516 .129-.415 .129" fill="#1b1815"/>
<path transform="matrix(1,0,0,-1,32.5071,5.7246019)" d="M0 0V-.214H.107V-.258H0V-.472H-.052V0ZM.023-.64H-.409V-.451H-.356V-.596H.023ZM-.433-.276C-.433-.325-.397-.365-.325-.365-.254-.365-.22-.328-.22-.276-.22-.228-.254-.191-.325-.191-.396-.191-.433-.228-.433-.276M-.326-.406C-.423-.406-.485-.347-.485-.277-.485-.205-.422-.151-.325-.151-.226-.151-.168-.206-.168-.277-.168-.345-.226-.406-.326-.406M-.131-.121H-.521V-.08H-.354V.006H-.298V-.08H-.131Z" fill="#1b1815"/>
<path transform="matrix(1,0,0,-1,0,72.5669)" d="M33.387 66.192H33.334V66.842H33.387ZM33.273 66.385C33.156 66.369 33.009 66.37 32.893 66.37V66.794H33.206V66.751H32.946V66.417C33.032 66.417 33.164 66.416 33.273 66.43Z" fill="#1b1815"/>
<path transform="matrix(1,0,0,-1,34.1063,5.9990007)" d="M0 0H-.115V-.376H-.167V.274H-.115V.046H0ZM-.264-.212C-.321-.18-.4-.124-.437-.034-.47-.126-.54-.182-.613-.227L-.647-.189C-.549-.135-.464-.05-.464 .067V.183H-.611V.226H-.262V.183H-.409V.064C-.409-.048-.324-.128-.237-.17Z" fill="#1b1815"/>
<path transform="matrix(1,0,0,-1,0,72.5669)" d="M34.667 66.383H34.615V66.842H34.667ZM34.683 66.202H34.248V66.428H34.302V66.247H34.683ZM34.319 66.776C34.241 66.776 34.204 66.721 34.204 66.659 34.204 66.598 34.242 66.543 34.319 66.543 34.401 66.543 34.434 66.598 34.434 66.659 34.434 66.721 34.402 66.776 34.319 66.776M34.319 66.821C34.425 66.821 34.491 66.746 34.491 66.659 34.491 66.573 34.428 66.498 34.319 66.498 34.212 66.498 34.148 66.573 34.148 66.659 34.148 66.746 34.215 66.821 34.319 66.821" fill="#1b1815"/>
<path transform="matrix(1,0,0,-1,35.4095,6.0205)" d="M0 0C.011 .063 .024 .166 .024 .22H-.361V.265H.081C.081 .162 .067 .07 .055 0ZM.165-.095H.003V-.355H-.05V-.095H-.228V-.348H-.281V-.095H-.445V-.051H.165Z" fill="#1b1815"/>
<path transform="matrix(1,0,0,-1,36.1492,6.0986025)" d="M0 0H-.052V.171H-.187V.215H-.052V.374H0ZM-.048-.155C-.048-.098-.109-.061-.21-.061-.312-.061-.371-.099-.371-.155-.371-.208-.312-.247-.21-.247-.109-.247-.048-.209-.048-.155M.006-.154C.006-.232-.061-.289-.21-.289-.359-.289-.427-.23-.427-.154-.427-.079-.359-.02-.21-.02-.061-.02 .006-.077 .006-.154M-.173 .027C-.234 .051-.312 .098-.343 .162-.371 .087-.443 .045-.51 .011L-.54 .045C-.456 .087-.37 .139-.37 .246V.298H-.508V.34H-.179V.298H-.316V.247C-.316 .143-.229 .098-.149 .066Z" fill="#1b1815"/>
<path transform="matrix(1,0,0,-1,0,72.5669)" d="M36.797 66.192H36.746004V66.842H36.797ZM36.301 66.575C36.301 66.474 36.332 66.395 36.395 66.395 36.463 66.395 36.492 66.473 36.492 66.575 36.492 66.675 36.463 66.755 36.395 66.755 36.327 66.755 36.301 66.675 36.301 66.575M36.396 66.8C36.481 66.8 36.534 66.727 36.541 66.605H36.623V66.839H36.675V66.213H36.623V66.558H36.542C36.539 66.428 36.487 66.348 36.396 66.348 36.307 66.348 36.25 66.435 36.25 66.574 36.25 66.714 36.304 66.8 36.396 66.8" fill="#1b1815"/>
<path transform="matrix(1,0,0,-1,37.7298,5.9981005)" d="M0 0H-.116V-.377H-.169V.273H-.116V.045H0ZM-.208-.19C-.256-.197-.317-.2-.413-.2V.225H-.234V.182H-.362V-.155C-.299-.155-.236-.15-.208-.147ZM-.448-.197C-.468-.199-.561-.202-.629-.202V.225H-.466V.182H-.577V-.157C-.526-.157-.462-.154-.448-.152Z" fill="#1b1815"/>
<path transform="matrix(1,0,0,-1,38.2552,5.7246019)" d="M0 0V-.241H.116V-.287H0V-.65H-.053V0ZM-.105-.477C-.222-.49-.37-.491-.482-.491V-.239H-.244V-.085H-.482V-.042H-.192V-.281H-.429V-.444C-.3-.444-.219-.442-.105-.432Z" fill="#1b1815"/>
<path transform="matrix(1,0,0,-1,39.1092,5.7246019)" d="M0 0V-.235H.115V-.281H0V-.65H-.052V0ZM-.3-.029V-.206C-.301-.318-.213-.398-.126-.44L-.153-.482C-.21-.45-.291-.394-.328-.305-.361-.396-.434-.452-.507-.497L-.542-.46C-.443-.405-.355-.321-.355-.204V-.029Z" fill="#1b1815"/>
<path transform="matrix(1,0,0,-1,39.5569,5.963402)" d="M0 0C-.032 0-.061 .003-.086 .007V-.071H.09V.008C.064 .003 .033 0 0 0M-.167 .119C-.167 .065-.093 .043 0 .043 .096 .043 .169 .065 .169 .119 .169 .167 .094 .192 0 .192-.093 .192-.167 .166-.167 .119M.001-.216C-.106-.216-.17-.249-.17-.299-.17-.349-.106-.382 .001-.382 .109-.382 .173-.35 .173-.299 .173-.247 .109-.216 .001-.216M.231-.299C.231-.37 .157-.424 .001-.424-.152-.424-.227-.37-.227-.299-.227-.227-.153-.175 .001-.175 .157-.175 .231-.227 .231-.299M.307-.115H-.304V-.071H-.139V.02C-.194 .041-.222 .075-.222 .119-.222 .187-.144 .235 0 .235 .139 .235 .223 .187 .223 .119 .223 .075 .194 .042 .142 .022V-.071H.307Z" fill="#1b1815"/>
<path transform="matrix(1,0,0,-1,40.4656,6.375)" d="M0 0H-.052V.311H-.142V.021H-.193V.647H-.142V.358H-.052V.65H0ZM-.307 .3C-.307 .366-.339 .41-.408 .41-.474 .41-.508 .366-.508 .3-.508 .231-.476 .185-.408 .185-.337 .185-.307 .231-.307 .3M-.257 .299C-.257 .2-.315 .142-.408 .142-.5 .142-.558 .204-.558 .299-.558 .395-.499 .454-.408 .454-.316 .454-.257 .395-.257 .299M-.236 .495H-.578V.538H-.434V.642H-.379V.538H-.236Z" fill="#1b1815"/>
<path transform="matrix(1,0,0,-1,41.1517,6.131401)" d="M0 0H-.117V-.244H-.169V.407H-.117V.273H0V.227H-.117V.046H0ZM-.347 .138C-.347 .252-.387 .322-.459 .322-.532 .322-.573 .253-.573 .138-.573 .026-.532-.048-.459-.048-.387-.048-.347 .026-.347 .138M-.294 .137C-.294-.013-.361-.091-.46-.091-.558-.091-.625-.013-.625 .137-.625 .29-.558 .365-.46 .365-.361 .365-.294 .289-.294 .137" fill="#1b1815"/>
<path transform="matrix(1,0,0,-1,41.886,5.7246019)" d="M0 0V-.214H.107V-.258H0V-.472H-.052V0ZM.023-.64H-.409V-.451H-.356V-.596H.023ZM-.433-.276C-.433-.325-.397-.365-.325-.365-.254-.365-.22-.328-.22-.276-.22-.228-.254-.191-.325-.191-.396-.191-.433-.228-.433-.276M-.326-.406C-.423-.406-.485-.347-.485-.277-.485-.205-.422-.151-.325-.151-.226-.151-.168-.206-.168-.277-.168-.345-.226-.406-.326-.406M-.131-.121H-.521V-.08H-.354V.006H-.298V-.08H-.131Z" fill="#1b1815"/>
<path transform="matrix(1,0,0,-1,42.6419,5.9990007)" d="M0 0H-.116V-.376H-.169V.274H-.116V.046H0ZM-.221-.183C-.337-.199-.482-.198-.599-.198V.226H-.288V.183H-.545V-.151C-.459-.151-.33-.152-.221-.138Z" fill="#1b1815"/>
<path transform="matrix(1,0,0,-1,0,72.5669)" d="M42.703 66.313H42.78V66.241008H42.703Z" fill="#1b1815"/>
<path transform="matrix(1,0,0,-1,25.1297,8.0532)" d="M0 0 .006-.109H-.042L-.034 .003-.126-.056-.148-.017-.049 .029-.146 .079-.124 .114-.036 .056-.042 .163H.006L0 .058 .091 .115 .114 .08 .012 .03 .115-.02 .092-.059Z" fill="#db2a30"/>
<path transform="matrix(1,0,0,-1,0,72.5669)" d="M26.063 63.992H26.011V64.642H26.063ZM25.936 64.013H25.884V64.398H25.76V64.445H25.884V64.639H25.936ZM25.803 64.162C25.74 64.2 25.688 64.262 25.665 64.325 25.647 64.257 25.577 64.184 25.512 64.147L25.479 64.184C25.585 64.245 25.639 64.34 25.639 64.426V64.606H25.692V64.426C25.692 64.332 25.746 64.251 25.834 64.2Z" fill="#db2a30"/>
<path transform="matrix(1,0,0,-1,26.222,8.301804)" d="M0 0V.194H.38V.3H-.002V.343H.432V.151H.053V.043H.454V0ZM.245-.03V-.13H.523V-.173H-.087V-.13H.191V-.03Z" fill="#db2a30"/>
<path transform="matrix(1,0,0,-1,27.3089,8.287102)" d="M0 0C-.083 .026-.191 .094-.232 .168-.27 .094-.371 .033-.464 0L-.494 .039C-.396 .068-.261 .149-.261 .242V.282H-.456V.325H-.007V.282H-.203V.242C-.203 .149-.068 .071 .03 .038ZM.074-.18H-.537V-.137H-.259V.013H-.206V-.137H.074Z" fill="#db2a30"/>
<path transform="matrix(1,0,0,-1,28.034,8.1367039)" d="M0 0H-.106V-.143H-.159V.212H-.106V.043H0ZM-.157-.309H-.463V-.39099998H-.157ZM-.105-.435H-.516V-.183H-.463V-.266H-.157V-.183H-.105ZM-.539-.033C-.539-.072-.501-.107-.432-.107-.362-.107-.326-.074-.326-.033-.326 .006-.362 .037-.432 .037-.502 .037-.539 .006-.539-.033M-.432-.148C-.532-.148-.592-.095-.592-.034-.592 .028-.533 .076-.432 .076-.331 .076-.274 .028-.274-.034-.274-.093-.331-.148-.432-.148M-.238 .106H-.628V.147H-.46V.226H-.405V.147H-.238Z" fill="#db2a30"/>
<path transform="matrix(1,0,0,-1,28.1966,8.063004)" d="M0 0C0-.053 .06-.089 .168-.089 .272-.089 .336-.053 .336 0 .336 .048 .271 .086 .168 .086 .06 .086 0 .047 0 0M.414-.502H-.052V-.308H.001V-.457H.414ZM-.055 0C-.055 .067 .02 .128 .168 .128 .314 .128 .391 .068 .391 0 .391-.075 .316-.131 .168-.131 .02-.131-.055-.074-.055 0M.474-.24H-.136V-.196H.474Z" fill="#db2a30"/>
<path transform="matrix(1,0,0,-1,29.4149,7.924301)" d="M0 0V-.235H.115V-.281H0V-.65H-.052V0ZM-.3-.029V-.206C-.301-.318-.213-.398-.126-.44L-.153-.481C-.21-.45-.291-.394-.328-.305-.361-.395-.434-.452-.507-.497L-.542-.459C-.443-.405-.355-.321-.355-.204V-.029Z" fill="#db2a30"/>
<path transform="matrix(1,0,0,-1,0,72.5669)" d="M30.102 64.184H30.05V64.643H30.102ZM30.118 64.002H29.683V64.229H29.736V64.047H30.118ZM29.754 64.577C29.675 64.577 29.639 64.522 29.639 64.46 29.639 64.398 29.676 64.343 29.754 64.343 29.835 64.343 29.869 64.398 29.869 64.46 29.869 64.522 29.837 64.577 29.754 64.577M29.754 64.622C29.86 64.622 29.925 64.546 29.925 64.46 29.925 64.373 29.862 64.298 29.754 64.298 29.646 64.298 29.583 64.373 29.583 64.46 29.583 64.546 29.649 64.622 29.754 64.622" fill="#db2a30"/>
<path transform="matrix(1,0,0,-1,30.7327,8.237305)" d="M0 0H-.451V.17H-.074V.247H-.453V.292H-.021V.127H-.398V.044H0ZM.074-.127H-.089V-.337H-.142V-.127H-.323V-.331H-.376V-.127H-.537V-.083H.074Z" fill="#db2a30"/>
<path transform="matrix(1,0,0,-1,0,72.5669)" d="M31.524 64.643H31.577V64.291H31.524ZM31.324 64.577H31.135V64.39101H31.324ZM31.587 63.987C31.501 64.01 31.411 64.062 31.368 64.127 31.329 64.063 31.229 64.007 31.15 63.987L31.12 64.026C31.235 64.056 31.31 64.108 31.337 64.171H31.142V64.214H31.342V64.291H31.398V64.214H31.594V64.171H31.4C31.432 64.097 31.523 64.047 31.617 64.026ZM31.375 64.347H31.083V64.62H31.375Z" fill="#db2a30"/>
<path transform="matrix(1,0,0,-1,32.4388,8.574703)" d="M0 0H-.051V.379H-.148V.021H-.199V.647H-.148V.425H-.051V.65H0ZM-.245 .191C-.321 .18-.428 .181-.52 .181V.599H-.289V.555H-.467V.228C-.397 .228-.318 .228-.245 .235Z" fill="#db2a30"/>
<path transform="matrix(1,0,0,-1,33.0682,8.314903)" d="M0 0H-.052V.076H-.164V.12H-.052V.209H-.164V.254H-.052V.391H0ZM-.047-.148C-.047-.083-.135-.065-.21-.065-.285-.065-.372-.084-.372-.148-.372-.215-.283-.229-.21-.229-.135-.229-.047-.214-.047-.148M.008-.147C.008-.246-.104-.272-.211-.272-.313-.272-.427-.246-.427-.147-.427-.051-.312-.023-.211-.023-.106-.023 .008-.051 .008-.147M-.462 .133C-.462 .093-.426 .057-.355 .057-.283 .057-.25 .092-.25 .133-.25 .172-.283 .204-.355 .204-.425 .204-.462 .172-.462 .133M-.355 .016C-.458 .016-.514 .071-.514 .132-.514 .194-.457 .245-.355 .245-.251 .245-.196 .194-.196 .132-.196 .073-.252 .016-.355 .016M-.167 .278H-.55V.319H-.383V.403H-.328V.319H-.167Z" fill="#db2a30"/>
<path transform="matrix(1,0,0,-1,33.972,8.114304)" d="M0 0H-.107V-.187H-.159V.19H-.107V.043H0ZM-.149-.341C-.149-.283-.207-.247-.308-.247-.412-.247-.468-.283-.468-.341-.468-.396-.412-.431-.308-.431-.207-.431-.149-.398-.149-.341M-.095-.34C-.095-.418-.159-.473-.309-.473-.458-.473-.524-.418-.524-.34-.524-.263-.458-.206-.309-.206-.159-.206-.095-.262-.095-.34M-.257-.15C-.317-.126-.396-.079-.427-.015-.457-.09-.528-.132-.595-.167L-.626-.131C-.54-.09-.455-.038-.455 .069V.114H-.593V.156H-.263V.114H-.4V.07C-.4-.034-.314-.079-.234-.111Z" fill="#db2a30"/>
<path transform="matrix(1,0,0,-1,0,72.5669)" d="M34.537 63.992H34.483999V64.642H34.537ZM34.383 64.142C34.327 64.174 34.25 64.234 34.214 64.32 34.18 64.229 34.111 64.173 34.037 64.128L34.003 64.166C34.101 64.22 34.186 64.304 34.186 64.421V64.502H34.032V64.544H34.186V64.643H34.241V64.544H34.395V64.502H34.241V64.419C34.241 64.307 34.323 64.226 34.41 64.184Z" fill="#db2a30"/>
<path transform="matrix(1,0,0,-1,0,72.5669)" d="M35.105 64.59H34.777V64.486H35.105ZM34.724 64.633H35.156V64.443H34.724ZM35.246 64.335H34.967V64.267H35.161V64.11H34.777V64.03H35.178V63.988H34.719V64.149H35.106V64.225H34.719V64.267H34.912V64.335H34.636V64.379H35.246Z" fill="#db2a30"/>
<path transform="matrix(1,0,0,-1,36.0233,8.300301)" d="M0 0H-.052V.176H-.187V.22H-.052V.376H0ZM-.001-.278H-.053V-.086H-.433V-.043H-.001ZM-.173 .029C-.234 .053-.312 .104-.343 .169-.371 .093-.443 .048-.51 .013L-.541 .048C-.456 .09-.37 .146-.37 .254V.301H-.508V.345H-.179V.301H-.316V.255C-.316 .151-.229 .101-.15 .069Z" fill="#db2a30"/>
<path transform="matrix(1,0,0,-1,36.4168,8.162605)" d="M0 0C-.032 0-.061 .002-.086 .007V-.072H.09V.007C.063 .002 .033 0 0 0M-.168 .118C-.168 .065-.093 .043 0 .043 .096 .043 .168 .065 .168 .118 .168 .166 .094 .192 0 .192-.093 .192-.168 .165-.168 .118M.001-.216C-.106-.216-.17-.249-.17-.299-.17-.349-.106-.382 .001-.382 .109-.382 .173-.351 .173-.299 .173-.248 .109-.216 .001-.216M.231-.3C.231-.37 .157-.424 .001-.424-.152-.424-.228-.37-.228-.3-.228-.227-.153-.176 .001-.176 .157-.176 .231-.227 .231-.3M.307-.115H-.304V-.072H-.139V.02C-.194 .04-.223 .074-.223 .118-.223 .187-.144 .234 0 .234 .139 .234 .223 .187 .223 .118 .223 .074 .194 .042 .142 .021V-.072H.307Z" fill="#db2a30"/>
<path transform="matrix(1,0,0,-1,0,72.5669)" d="M37.494 63.992H37.442V64.642H37.494ZM37.182 64.613V64.437C37.18 64.325 37.268 64.245 37.355 64.203L37.329 64.161C37.273 64.193 37.191 64.249 37.153 64.338 37.12 64.247 37.047 64.19 36.973 64.146L36.94 64.183C37.038 64.238 37.127 64.322 37.127 64.439V64.613Z" fill="#db2a30"/>
<path transform="matrix(1,0,0,-1,0,72.5669)" d="M38.149 63.992H38.098V64.642H38.149ZM37.652 64.376C37.652 64.274 37.684 64.195 37.747 64.195 37.814 64.195 37.843 64.273 37.843 64.376 37.843 64.476 37.814 64.556 37.747 64.556 37.679 64.556 37.652 64.475 37.652 64.376M37.748 64.601C37.833 64.601 37.886 64.527 37.893 64.405H37.974V64.639H38.026V64.013H37.974V64.358H37.894C37.89 64.228 37.838 64.148 37.748 64.148 37.658 64.148 37.602 64.235 37.602 64.375 37.602 64.514 37.656 64.601 37.748 64.601" fill="#db2a30"/>
<path transform="matrix(1,0,0,-1,38.7386,7.924301)" d="M0 0V-.185H.107V-.229H0V-.466H-.052V0ZM.024-.64H-.409V-.421H-.356V-.596H.024ZM-.245-.078H-.437V-.299H-.245ZM-.193-.341H-.48900003V-.034999998H-.193Z" fill="#db2a30"/>
<path transform="matrix(1,0,0,-1,0,72.5669)" d="M39.633 63.992H39.581V64.642H39.633ZM39.506 64.013H39.454V64.384H39.338V64.43H39.454V64.639H39.506ZM39.373 64.158C39.309 64.196 39.253 64.267 39.232 64.325 39.216 64.251 39.145 64.18 39.08 64.144L39.048 64.18C39.154 64.241 39.204 64.335 39.204 64.421V64.546H39.083V64.59H39.38V64.546H39.259V64.421C39.259 64.331 39.312 64.248 39.402 64.196Z" fill="#db2a30"/>
<path transform="matrix(1,0,0,-1,40.2234,7.924301)" d="M0 0V-.214H.106V-.258H0V-.472H-.052V0ZM.023-.64H-.409V-.451H-.356V-.596H.023ZM-.433-.276C-.433-.325-.397-.365-.325-.365-.254-.365-.22-.328-.22-.276-.22-.228-.254-.191-.325-.191-.396-.191-.433-.228-.433-.276M-.326-.406C-.423-.406-.485-.347-.485-.277-.485-.205-.422-.151-.325-.151-.226-.151-.168-.206-.168-.277-.168-.345-.226-.406-.326-.406M-.131-.121H-.521V-.08H-.354V.006H-.298V-.08H-.131Z" fill="#db2a30"/>
<path transform="matrix(1,0,0,-1,40.9036,8.300301)" d="M0 0H-.052V.176H-.187V.22H-.052V.376H0ZM0-.278H-.053V-.086H-.432V-.043H0ZM-.173 .029C-.234 .053-.312 .104-.342 .169-.371 .093-.443 .048-.51 .013L-.54 .048C-.455 .09-.37 .146-.37 .254V.301H-.508V.345H-.179V.301H-.316V.255C-.316 .151-.229 .101-.149 .069Z" fill="#db2a30"/>
<path transform="matrix(1,0,0,-1,41.4705,8.126503)" d="M0 0C0 .071-.062 .124-.172 .124-.284 .124-.345 .07-.345 0-.345-.068-.283-.125-.172-.125-.062-.125 0-.068 0 0M.054 0C.054-.09-.026-.169-.172-.169-.317-.169-.397-.09-.397 0-.397 .088-.317 .168-.172 .168-.027 .168 .054 .088 .054 0M.133-.336H-.477V-.29299999H.133Z" fill="#db2a30"/>
<path transform="matrix(1,0,0,-1,41.7176,8.301804)" d="M0 0V.194H.38V.3H-.002V.343H.433V.151H.053V.043H.454V0ZM.245-.03V-.13H.523V-.173H-.087V-.13H.191V-.03Z" fill="#db2a30"/>
<path transform="matrix(1,0,0,-1,42.9852,7.924301)" d="M0 0V-.235H.115V-.281H0V-.65H-.052V0ZM-.3-.029V-.206C-.301-.318-.213-.398-.126-.44L-.153-.481C-.21-.45-.291-.394-.328-.305-.361-.395-.434-.452-.507-.497L-.542-.459C-.443-.405-.355-.321-.355-.204V-.029Z" fill="#db2a30"/>
<path transform="matrix(1,0,0,-1,43.4329,8.162605)" d="M0 0C-.032 0-.061 .002-.086 .007V-.072H.09V.007C.063 .002 .033 0 0 0M-.168 .118C-.168 .065-.093 .043 0 .043 .096 .043 .168 .065 .168 .118 .168 .166 .094 .192 0 .192-.093 .192-.168 .165-.168 .118M.001-.216C-.106-.216-.17-.249-.17-.299-.17-.349-.106-.382 .001-.382 .109-.382 .173-.351 .173-.299 .173-.248 .109-.216 .001-.216M.231-.3C.231-.37 .157-.424 .001-.424-.152-.424-.228-.37-.228-.3-.228-.227-.153-.176 .001-.176 .157-.176 .231-.227 .231-.3M.307-.115H-.304V-.072H-.139V.02C-.194 .04-.222 .074-.222 .118-.222 .187-.144 .234 0 .234 .139 .234 .223 .187 .223 .118 .223 .074 .194 .042 .142 .021V-.072H.307Z" fill="#db2a30"/>
<path transform="matrix(1,0,0,-1,44.2913,7.924301)" d="M0 0V-.296H.116V-.342H0V-.65H-.052V0ZM-.213-.356C-.213-.281-.249-.235-.324-.235-.396-.235-.435-.283-.435-.356-.435-.425-.396-.476-.324-.476-.249-.476-.213-.427-.213-.356M-.162-.356C-.162-.446-.22-.52-.324-.52-.425-.52-.488-.451-.488-.356-.488-.255-.424-.191-.324-.191-.22-.191-.162-.254-.162-.356M-.297-.102H-.124V-.145H-.526V-.102H-.353V0H-.297Z" fill="#db2a30"/>
<path transform="matrix(1,0,0,-1,44.511,8.264206)" d="M0 0V.304H.441V.26H.052V.044H.449V0ZM.246-.046V-.161H.524V-.205H-.086V-.161H.191V-.046Z" fill="#db2a30"/>
<path transform="matrix(1,0,0,-1,45.5911,8.578602)" d="M0 0H-.054V.158H-.452V.201H0ZM.081 .264H-.529V.307H-.251V.376H-.441V.531H-.062V.6H-.441V.643H-.01V.489H-.388V.42H.007V.376H-.197V.307H.081Z" fill="#db2a30"/>
<path transform="matrix(1,0,0,-1,46.4202,7.924301)" d="M0 0V-.214H.107V-.258H0V-.472H-.052V0ZM.023-.64H-.409V-.451H-.356V-.596H.023ZM-.433-.276C-.433-.325-.397-.365-.325-.365-.254-.365-.22-.328-.22-.276-.22-.228-.254-.191-.325-.191-.396-.191-.433-.228-.433-.276M-.326-.406C-.423-.406-.485-.347-.485-.277-.485-.205-.422-.151-.325-.151-.226-.151-.168-.206-.168-.277-.168-.345-.226-.406-.326-.406M-.131-.121H-.521V-.08H-.354V.006H-.298V-.08H-.131Z" fill="#db2a30"/>
<path transform="matrix(1,0,0,-1,47.1761,8.1987)" d="M0 0H-.116V-.376H-.169V.274H-.116V.046H0ZM-.221-.183C-.337-.199-.482-.198-.599-.198V.226H-.288V.183H-.545V-.151C-.459-.151-.33-.152-.221-.138Z" fill="#db2a30"/>
<path transform="matrix(1,0,0,-1,0,72.5669)" d="M47.237 64.113H47.314V64.041H47.237Z" fill="#db2a30"/>
</g>
</g>
</svg>
